<?xml version="1.0" encoding="UTF-8"?>
<!DOCTYPE svg PUBLIC "-//W3C//DTD SVG 1.1//EN" "http://www.w3.org/Graphics/SVG/1.1/DTD/svg11.dtd">
<!-- Creator: CorelDRAW -->
<svg xmlns="http://www.w3.org/2000/svg" xml:space="preserve" width="210mm" height="297mm" version="1.1" style="shape-rendering:geometricPrecision; text-rendering:geometricPrecision; image-rendering:optimizeQuality; fill-rule:evenodd; clip-rule:evenodd"
viewBox="0 0 21000 29700"
 xmlns:xlink="http://www.w3.org/1999/xlink">
 <defs>
  <style type="text/css">
   <![CDATA[
    .str1 {stroke:black;stroke-width:10;stroke-miterlimit:3.864;stroke-opacity:0.501961}
    .str6 {stroke:black;stroke-width:50;stroke-miterlimit:22.9256}
    .str4 {stroke:#434242;stroke-width:10;stroke-miterlimit:22.9256}
    .str0 {stroke:black;stroke-width:10;stroke-miterlimit:22.9256}
    .str2 {stroke:black;stroke-width:10;stroke-miterlimit:3.864}
    .str5 {stroke:#2B2A29;stroke-width:7.62;stroke-miterlimit:22.9256}
    .str3 {stroke:black;stroke-width:7.62;stroke-miterlimit:22.9256}
    .fil8 {fill:none}
    .fil2 {fill:#FEFEFE}
    .fil9 {fill:#D9DADA}
    .fil0 {fill:#2B2A29}
    .fil1 {fill:#A2D9F7}
    .fil6 {fill:#FEFEFE;fill-rule:nonzero}
    .fil5 {fill:#D9DADA;fill-rule:nonzero}
    .fil7 {fill:#434242;fill-rule:nonzero}
    .fil4 {fill:black;fill-rule:nonzero}
    .fil3 {fill:#FEFEFE;fill-rule:nonzero;fill-opacity:0.501961}
   ]]>
  </style>
 </defs>
<symbol id="villes" viewBox="10447.31 14797.31 105.38 105.38">
 <circle class="fil0" cx="10500" cy="14850" r="52.69"/>
</symbol>
 <g id="Plan_x0020_1">
  <metadata id="CorelCorpID_0Corel-Layer"/>
  <rect class="fil1" x="1000" y="999.99" width="19000" height="24004.87"/>
  <path class="fil2 str0" d="M1000 6792.68c35.72,22.1 52.16,30.23 35.74,70.11 -1.51,3.67 12.69,31.64 6.61,46.3 -0.57,1.39 -1.9,24.89 -4.31,27.78l-38.04 37.05 0 -181.24zm0 -332.06c63.76,64.59 13.5,24.91 41.14,76.73 6.27,11.75 -4.75,40.05 -8.39,54.24l-32.75 31.75 0 -162.72zm7753.87 7503.38c49.88,-12.04 15.5,5.1 64.93,15.24 76.77,15.73 69.01,-34.85 69.78,30.31 0.7,58.86 9.99,58.55 54.58,85.42 45.08,27.17 129.37,21.48 77.48,60.75 -73.21,55.41 -66.42,-15.29 -113.65,21.96 -52.34,41.26 -56.36,-62.04 -97.11,-87.09 -53.78,-33.05 -25.43,53.85 -31.56,71.1 -16.64,46.85 18.49,59.28 32.85,78.69 31.42,42.51 43.89,63.49 -19.16,95.59 -25.28,10.82 -37.2,14.93 -61.65,29.45 -29.05,17.25 -54.53,52.72 -80.36,30.95 -30.44,-25.65 -79.8,35.23 -93.89,59.08 -38.66,65.44 -27.4,84.92 -40.6,148.2 -10.71,51.38 -81.05,1.14 -97.02,163.48 -11.07,112.53 -73.7,123.35 -88.19,29.11 -17.12,-111.41 -62.61,-29.83 -47.62,-122.58 13.63,-84.34 -26.49,-73.9 -17.31,-130.1 9.92,-60.8 6.98,-55.96 5.51,-113.59 -0.66,-26.23 -22.42,-74.44 -31.86,-32.91 -12.41,54.6 -52.12,123.47 -10.58,171.22 39.91,45.89 -14.49,63.28 -28.24,117.63 -17.14,67.78 -45.08,116.31 -121.66,125.86 -42.59,5.32 -88.93,102.65 -117.41,123.03 -60.33,43.19 -10.19,20.78 -96.5,49.41l-17.19 2.64c-63,9.69 -48.18,-5.57 -78.59,-10.35 -91.81,-14.45 -56.6,126.05 -79.07,159.2 -20.29,29.94 -62.52,40.39 -97.22,26.76 -64.1,-25.17 -94.68,-16.22 -160.52,-15.53 -54.98,0.58 -86.62,-11.87 -140.23,-15.54 -61.39,-4.21 -54.11,-4.57 -111.02,-18.86 -32.42,-8.14 -115.73,-67.94 -105.71,5.18 12.26,89.58 34.91,22.49 62.93,53.9 53.14,59.58 86.86,-47.28 202.94,4.42 46.13,20.55 56.29,-0.96 113.58,30.32 7.78,4.24 39.95,62.42 48.61,76.16 19.16,30.39 67.73,63.98 70.9,74.31 14.61,47.51 -33.71,81.72 -65.58,103.3 -47.55,32.2 -99.75,128.07 -76.08,182.26 23.97,54.89 54.95,111.99 57.87,172.62l1.09 3.63c4.78,23.71 -1.05,66.92 4.65,95.82 13.35,67.65 -61.2,94.26 -72,117.4 -8.13,17.42 21.14,101.22 30.08,113.1 45.1,59.87 -5.21,67.23 0,105.64 6.21,45.68 -23.71,95.09 -58.51,121.89 -45.83,35.32 -51.58,71.28 -29.78,124.29 28.45,69.2 11.33,50.13 21.62,112.86 7.95,48.48 5.34,54.89 -8.28,107.61l-0.98 4.42c-7.18,32.41 -10.03,74.33 -20.19,107.46 -30.53,99.59 21.17,74.75 21.17,134.07 0,62.38 -16.51,143.12 -65.8,186.76 -59.69,52.84 25.6,52.95 -55.11,100.96 -32.22,19.16 -37.75,200.36 -36.52,236.27 12.24,29.62 35.36,93.09 42,123.9 18.87,87.56 -10.88,80.07 -40.33,143.45 -43.17,92.88 -63.53,146.29 -71.78,249.13 -7.76,96.71 -7.49,89.13 -39.23,180.7 -25.99,74.97 -110.48,135.77 -114.34,198.33 -3.03,49.02 6.06,49.92 -25.03,99.33l-3.85 10.47c-36.14,78.15 -50.91,83.88 -70.34,171.64 -15.61,70.49 -3.21,95.97 -30.43,168.47 -27.88,74.22 -45.8,83.21 -83.46,143.1 -21.96,34.91 -34.37,107.69 -50.04,121.03 -59.97,51.03 -68.94,-47.88 -115.9,10.05 -22.75,28.07 -68.09,42.26 -87.38,9.38 -44.81,-76.34 -15.67,-50.71 -100.32,-57.34 -55.13,-4.32 -91.7,-56.33 -134.63,-47.29 -25.39,5.35 -45.85,3.3 -72.42,2.31 -30.73,0 -59.59,3.06 -89.85,4.08 -7.81,0.27 -79.88,-14.3 -90.94,-17.2 -64.6,-16.93 -135.68,11.1 -197.91,28.99 -51.94,14.94 -77.95,-18.51 -101.53,2.01 -34.02,29.61 -42.6,82.28 -28.76,124.35 11.1,33.71 28.75,104.91 -31.86,98.2 -33.58,-3.72 -68.45,-4.75 -96.28,-25.13 -45.27,-33.16 -94.83,25.39 -125.1,54.8 -50.75,49.3 -117.26,170.62 -151.92,233.93 -9.34,37.49 -20.47,96.74 -13.68,134.49 12.3,68.3 25.24,62.34 57.23,108.59 33.99,49.16 16.58,78.61 30.54,96.58 21.73,27.96 25.82,69.64 26.46,104.09 0.49,26.29 -53.62,108.71 -71.55,130.52 -25.09,30.5 -34.04,56.6 -51.71,78.73 -16.14,20.22 -63.84,29.33 -87.09,36.25 -8.32,1.29 -9.72,1.91 -18.06,1.09 -78.95,-7.68 -38.65,-92.76 -134.41,-93.7 -85.9,-0.84 -160.75,41.75 -232.5,41.01 -74.51,-0.76 -47.25,9.71 -100.54,19.85 -54.2,10.31 -77.03,34.73 -118.73,44.98 -156.73,38.53 -133.04,-32.41 -248.48,-36.93 -48.74,-1.9 -54.25,-23.98 -105.84,-5.29 -15.61,5.65 -51.58,6.3 -49.28,-13.57 5.02,-43.42 67,-35.4 50.04,-65.58 -23.42,-41.68 9.28,-81.25 -13.23,-118.72 -19.98,-33.27 -17.55,-33.83 -31.86,-65.51 -10.94,-24.21 28.09,-47.97 45.21,-54.69 45.04,-17.69 27.07,-30.66 67.35,-76.28 8.26,-19.1 8.4,-24.11 12.36,-43.65 5.96,-29.36 -40.81,-72.78 -61.65,-86.98 -68.48,-46.67 -20.05,-74.82 -63.5,-111.46 -93.64,-78.98 -38.93,-100.08 -76.05,-155.32 -43.14,-64.21 -20.16,-133.7 -82.77,-167.36 -49.08,-26.39 -55.5,-52.12 -84.59,-70.57 -20.95,-13.29 -41.56,-43.67 -56.44,-48.27 -46.49,-14.38 -14.8,-127.97 -6.06,-159.76 0.84,-19.66 -7.22,-31.6 -15.76,-48.03 -8.15,-15.68 -55.22,-62.48 -35.83,-72.35 22.82,-11.61 106.1,48.69 135.05,59.53 43.83,16.41 69.64,52.9 107.38,42.45 69.76,-19.34 28.47,-70.27 14.1,-102.32 -20.74,-46.26 -34.31,-57.44 -61.08,-96.24 -20.08,-29.09 -97.59,-108.33 -33.19,-125.44 29.53,-7.85 88.54,-44.7 112.9,-25.37 19.06,15.12 60.74,22.2 76.2,-3.21 39.72,-65.27 -1.5,-119.47 -0.79,-155.54 1.55,-78.54 -3.85,-107.16 -94.61,-107.16 -91.65,0 -40.68,-62.45 -97.75,-104.17 -55.64,-40.67 -39.04,-75.96 -57.78,-139.14 -17.04,-57.41 -16.77,-77.73 -56.78,-125.78 -16.7,-13.38 -44.43,-32.21 -58.06,-45.18 -28.41,-27.03 -36.97,-29.25 -65.95,-49.73 -69.97,-49.46 -14.52,-129.76 -60.67,-186.01 -48.02,-58.53 -49.53,-50.76 -73.29,-127.19 -22.79,-73.28 3.5,-108.33 -73.85,-144.09 -79.23,-36.61 6.62,-88.95 -3.22,-129.11 -16.98,-69.32 -54.21,-37.62 -43.31,-119.06 1.53,-11.41 27.14,-81.35 6.27,-82.03 -46,-1.51 -63.9,148 -117.51,69.78 -9.2,-13.41 -27.1,-97.07 -31.64,-112.11 0,-46.46 -7.01,-87.92 -0.98,-135.28 9.81,-77.06 -36.41,-83.46 -38.6,-142.64 -2.81,-76.01 -103.81,-49.92 -79.03,-124.48 22.4,-67.41 65.19,-22.88 6.62,-104.81 -38.76,-54.21 -15.55,-67.27 -60.9,-111.39 -20.3,-19.75 -40.21,-20.86 -54.65,-31.82 -58.83,-44.67 46.54,-70.03 69.47,-86.9 45.51,-33.49 40.94,-22.95 52.58,-87.96 4.91,-27.44 -31.47,-25.7 -36.85,-20.18 -23.72,24.29 -42.1,30.44 -61.39,58.55 -50.42,73.46 -53.87,49.11 -93.93,-12.14 -2.48,-12.96 -4.1,-17.36 -9.9,-28.87 -28.53,-56.64 -11.04,-48.19 -23.17,-90.19 -11.47,-39.72 -25.87,-13.98 -42.68,-80.24 -10.51,-41.43 -52.42,-63.85 -13.75,-109.17 54.14,-63.45 -27.89,-51.08 4.38,-144.38 34.05,-98.48 -61.1,-9.57 -72.76,-102.89 -10.57,-84.55 -15.32,-48.36 -77.19,-74.76 -41.83,-17.86 -19.92,-121.92 -5.7,-146.62 27.55,-47.86 10,-95.85 -10.58,-143.63l-2.08 -7.71c-31.16,-82.91 58.6,-156.48 -10.7,-238.36 -45.52,-53.79 -84.99,-97.75 -76.84,-174.62 8.64,-81.55 -46.09,-101.7 -26.8,-162.38 24.48,-77.05 9.09,-56.69 -30.77,-114.79 -17.62,-25.68 40.41,-77.55 38.71,-137.25 -2.02,-71.03 72.07,-120.89 32.2,-137.24 -17.01,-6.98 -74.11,-2.18 -93.06,-2.65 -26.62,-6.34 -50.78,-18.84 -69.25,-39.04 -41.2,-45.09 -98.75,-16.98 -121.48,-34.29 -72.07,-54.89 -34.66,-140.17 -91.73,-186.42 -61.41,-49.76 -10,-113.05 -55.75,-163.7 -71.57,-79.23 25.42,-114.27 6.04,-170.88 -10.47,-30.6 -9.35,-112.8 -11.79,-145.18 3,-18.98 3.67,-40.44 6.27,-59.54 3.79,-27.83 -23.87,-106.62 -39,-129.76 -16.2,-24.74 -11.58,-22.02 -22.83,-43.54 -32.06,-61.29 16.15,-43.64 14.55,-121.59 -0.37,-17.9 64.07,-99.75 76.73,-105.61 23.62,-10.93 -38.86,-3.9 -52.58,-44 -9.57,-27.95 -86.5,90.63 -88.97,93.93 -2.46,6.91 -7,19.51 -8.62,26.04 -5.68,22.85 1.55,143.45 10.05,167.56 19.7,55.86 71.6,67.68 64.37,120.04 -6.71,48.6 14.46,74.34 15,95.71 2.66,104.41 -73.86,62.79 -103.63,83.99 -49.55,35.26 -40.84,30.78 -107.39,17.42 -14.32,-2.87 -56.03,-47.74 -52.12,-4.19 8.84,98.47 46.79,57.76 54.35,102.32 16.03,94.4 113.09,2.61 94.91,191.48 -4.39,42.46 -1.26,129.44 -24.04,165.7 -30.26,48.18 -19.67,56.96 -38.47,106.18 -17.11,44.79 12.68,89.83 -2.31,102.51 -27.61,-5.22 -25.51,-85.74 -43.01,-89.85 -28.73,-6.74 -31.37,81.55 -58.86,108.37 -46.41,45.29 -16.25,99.7 -72.76,141.55 -77.94,57.73 -121.38,-14.55 -146.32,46.87 -29.04,71.55 -67.55,14.3 -136.78,36.48 -93.38,29.91 -46.77,-143.66 -109.47,-74.2 -35.63,39.47 -23.37,52.14 -74.42,98.01 -31.26,43.62 -60.48,53.85 -103.19,80.7 -91.78,57.7 -42.8,92.59 -63.39,132.93 -21.16,41.48 -51.8,25.48 -86.55,89.32 -20.7,38.02 -20.95,31.84 -43.54,62.4 -36.5,49.38 -71.54,20.13 -82.67,68.23 -16.29,70.38 -19.57,71.08 -84.93,111.8l0 -8112.62c34.46,-53.64 25.09,-46.09 67.15,-81.9 29.93,-25.49 52.5,-24.45 84.67,-41.58 5.62,-3 141.28,-48.66 108.48,-44.64 -21,2.57 -89.03,20.26 -104.63,12.89 -17.1,-8.08 -64.51,-5.38 -59.31,-44.53 5.23,-39.33 -31.86,-5.84 -31.86,-74.08 0,-5.19 27.09,11.49 56.43,-7.83 4.8,-3.15 64.3,-31.73 34.85,-39.57 -8.19,-2.18 -63.99,24.95 -80.69,-21.39 -4.65,-12.9 36.77,-22.8 35.71,-70.65 -1.1,-49.49 43.28,-42.75 78.06,-65.62 14.55,-6.43 50.61,-29.59 66.14,-22.94 10.91,4.66 23.69,25.11 51.94,4.42 32.74,-23.98 33.16,-78.83 35.72,-80.36 0.49,-0.29 31.29,1.13 62.59,-25.01 9.4,-7.85 104.6,-66.96 109.84,-68.38 30.81,-8.35 24.43,32.85 29.29,50.27 6.17,22.08 -6.39,65.14 22.83,80.81 41.4,22.2 31.2,73.28 65.69,114.98 16.3,19.71 11.25,17.65 32.78,37.95 69.52,65.54 70.46,109.25 50.79,199.76 -1.86,8.56 -87.16,137.62 -31.29,102.63 33.17,-20.78 46.97,-28.22 89.09,-22.04 38.14,5.59 62.01,8.93 94.91,28.76 27.29,16.44 87.09,-3.55 28.43,-38.36 -38.67,-22.95 -77.59,-54.36 -59.31,-105.84 8.61,-24.24 38.96,-18.28 63.61,-43.65 30.85,-31.75 53.57,-98.26 107.16,-57.35 16.73,12.77 51.39,24.82 71.67,18.87 71.37,-20.95 68.38,11.68 126.77,1.43 76.32,-3.2 85.36,6.86 151.8,18.18 32.96,5.62 24.13,-3.8 66.26,10.7 4.01,1.38 73.03,-40.34 73.09,-40.67 6.54,-32.21 -36.87,-39.68 -41.01,-61.08 -2.77,-14.33 -4.94,-8.83 -4.08,-28.99 0.84,-19.73 -12.43,-12.2 2.65,-51.07 3.15,-8.11 37.29,-79.48 9.26,-76.04 -12.96,1.59 -12.55,35.25 -43.66,46.75 -32.64,12.07 -31.85,29.74 -80.58,33.95 -39.9,3.44 -77.87,37.61 -94.16,30.99 -23.89,-9.73 64.41,-67.52 70.35,-77.64 25.57,-43.6 -6.02,-103.59 54.99,-119.48 30.9,-8.04 69.36,-53.57 85.46,-80.17 15.82,-26.12 78.06,-98.35 111.13,-97.55 57.69,1.39 69.52,41.86 143.4,-17.77 35.28,-28.46 22.92,-45.73 77.53,-55.87 20.58,-3.82 75.53,-30.96 93.59,-41.46 63.6,-36.72 60.06,-32.97 74.42,-96.57 11.12,-49.24 -64.53,-3.26 -54.92,-69.44 4.85,-33.35 12.34,-125.19 -44.64,-68.15 -15.96,15.98 -4.2,42.23 -63.84,55.91 -22.9,5.25 -59.61,86.15 -94.23,36.7 -13.45,-19.21 -1.2,-54.89 -9.49,-76.85 -22.83,-60.48 70.3,-55.63 95.78,-99.29 60.78,-104.14 8.75,-65.76 124.36,-94.61 34.86,-8.69 42.37,-24.41 52.91,-59.64 9.03,-30.2 -24.23,1.49 -67.99,-17.54 -19.87,-8.64 -61.06,-3.87 -76.43,11.04 -55.35,53.69 -40.14,49.05 -112.87,93.13 -17.13,10.38 -132.53,98.81 -131.42,118.19 1.79,31.56 97.23,22.69 77.71,93.82 -8.31,30.31 5.01,14.82 -14.21,62.4 -19.83,49.08 -3.1,32.66 -39.12,77.6 -14.93,18.63 -25.72,60.06 -52.39,91.85 -31.51,37.57 -55.67,31.75 -95.36,54.88 -34.51,20.11 -72.47,25.46 -104.47,57.12 -6.81,6.73 -13.83,13.05 -20.76,19.95 -62.64,41.09 -55.5,28.21 -98.35,88.98 -21.58,30.61 -18.17,40.14 -57.52,57.87 -56.18,25.29 -83,-0.86 -131.09,66.48 -27.85,39.01 -57.13,13.63 -87.76,47.29 -20.41,22.42 -61.04,35.78 -91.06,38.25 -51.35,4.21 -67.69,8.85 -106.7,-32.09 -12.9,-13.53 -25.94,-25.45 -32.55,-43.43 -4.33,-11.8 -80.04,-77.42 -94.79,-109.46 -3.81,-8.28 -19.22,-44.5 -21.17,-51.71 -8.35,-81.78 11.22,-70.61 68.79,-109.8 38.42,-26.16 29.48,-13.81 59.99,-55.8 4.31,-5.94 54.4,-106.61 8.35,-66.33 -97.74,85.5 -83.97,57.51 -186.42,100.96 -39.39,16.7 -91.64,79.16 -138.57,59.87 -8.8,-3.62 -23.44,-70.08 -17.76,-78.39 14.48,-21.18 95.33,-41.59 49.4,-69.55 -26.37,-16.05 -54.22,-39.59 -24.79,-70.45 21.54,-22.6 59.16,11.03 57.98,-71.03 -0.47,-32.31 42.3,-50.5 69.13,-55.75 28.09,-5.49 74.44,-81.81 120.28,-96.91 16.55,-5.46 98.25,-46.5 110.78,-58.21 49.23,-46.02 -26.03,-43 -31.98,-54.58 -10.29,-20.03 13.32,-59.96 25.48,-76.5 35.14,-44.21 23.36,-24.38 1.43,-69.78 -23.96,-49.62 -15.38,-80.17 43.09,-66.03 68.32,16.51 92.72,-15.31 68.26,-78.85 -9.77,-25.4 46.63,-54.89 38.37,-118.72 -9.29,-71.83 95.69,-38.03 111.36,-65.16 22.38,-38.77 -35.53,-63.73 6.91,-107.28 13.8,-14.15 28.93,-17.08 52.91,-45.84 19.46,-23.34 47.94,-7.48 46.76,-67.24 -1.63,-82.55 53.52,-25.27 83.23,-70.35 45.32,-68.75 5.41,-11.16 5.41,-97.03 0,-18.22 4.81,-18.9 11.9,-32.62 42.18,-15.85 61.01,-22.72 96.35,2.76 16.3,11.75 29.1,44.56 58.55,28.12 28.18,-15.73 -93.85,-77.9 -20.64,-115.66 41.25,-21.27 30.88,1.15 34.97,-47.96 4.46,-53.65 62.99,-34.84 79.82,-54.36 41.71,-48.35 18.99,-149.89 123.49,-118.15 23.1,7.01 53.42,42.79 56.43,68.79 8.26,71.29 66.61,21.32 91.81,94.23 8.76,25.34 47.74,31.61 74.32,45.66 42.56,22.5 35.63,2.41 46.86,61.08 11.94,62.35 23.26,-16.07 94.46,3.4 15.29,4.18 61.06,-33.02 -15.19,-39.68 -62.93,-5.5 -57.28,-31.28 -111.93,-55.23 -63.09,-27.65 1.94,-39.84 -78.46,-55.11 -30.55,-5.8 -81.51,-47.67 -52.92,-81.83 21.16,-25.27 18,-18.53 -20.72,-36.36 -66.36,-30.56 -71.85,-128.35 0.65,-100.65 36.77,14.04 15.06,33.67 68.34,35.72 67.22,2.58 40.01,76.21 83.23,113.88 38.98,33.98 10.68,-16.21 62.86,22.49 27.07,20.08 41.97,-33.79 65.92,12.89 25.85,50.38 85.35,5.6 84.77,3.1 26.23,-31.55 88.08,-87.57 -1.13,-51.71 -53.89,21.66 -100.49,17.92 -156.97,10.92 -51.57,-6.39 13.06,-43.84 -16.52,-67.58 -52.25,-41.95 -64.24,-36.78 -100.43,-104.85 -36.73,-69.11 60,-120.24 91.81,-97.78 14.43,10.18 48.54,3.34 65.39,0 39.46,-36.49 36.97,-48.09 63.62,-83.8 22.4,-30.04 99.2,-61.06 135.01,-83.88 29.63,-18.87 107.7,-13.89 86.79,-57.68 -14.86,-31.1 -73.7,37.89 -106.93,1.67 -45.45,-49.54 -91.82,31.18 -127.12,56.66 -29.02,20.95 -53.85,47.56 -91.73,60.21 -20.8,6.94 -66.15,36.25 -93.59,17.2 -12.15,-8.44 61.9,-65.87 72.31,-76.28 11.96,-11.96 81.9,-78.88 17.99,-53.71 -54.94,21.64 -105.42,17.79 -63.5,-50.27 13.94,-22.64 18.03,-21.26 24.68,-52.13 4.23,-19.66 10.78,-35.69 15.35,-59.86 4.58,-24.26 35.14,-77.98 63.61,-74.77 28.97,3.27 70.52,-98.88 142.76,-83.99 16.29,3.36 83.9,2.41 98.99,-6.73 2.75,-1.66 59.28,-20.57 37.92,-35.71 -9.45,-6.7 -92.72,37.27 -94.91,-31.75 -0.61,-19.33 55.58,-6.34 61.42,-7.83 11.14,-2.84 23.46,-4.53 33.83,-11.04 36.32,-49 64.07,-87 94.79,-139.77 14.88,-25.56 74.55,-140.35 108.82,-125.26 46.99,20.69 44.22,114.76 98.13,66.6 33.92,-30.31 3.22,-93.35 62.93,-132.3 22.92,-14.95 51.89,-40.66 76.54,-10.12 22.98,28.46 -28.26,82.23 24.57,95.24 53.2,13.11 2.3,126.17 205.4,-5.85 26.37,-17.15 32.1,-15.92 60.05,-39.58 22.51,-19.04 53.4,-30.11 72.54,-53.44 29.9,-36.47 49.84,-35.61 77.18,-81.38 12.79,-21.42 94.24,-110.71 80.93,-125.8 -14.82,-16.78 -14.41,9.83 -33.19,27.79 -34.39,32.9 -54,70.15 -86.56,99.33 -23.81,21.35 -47.88,43.49 -71.85,65.05 -47.38,42.61 -158.54,151.35 -230.53,98.01 -44.56,-33.02 6.78,-62.72 -23.7,-106.63 -22.86,-32.94 3,-33.03 -26.68,-53.56 -16.44,-11.37 31.35,-29.74 6.72,-68.15 -14.85,-23.17 42.52,-69.2 43.77,-116.3 0.78,-29.27 -27.54,39.54 -54.58,20.52 -21.53,-15.14 -52.95,-19.25 -47.85,22.27 9.2,75.04 -73.63,100.93 -109.01,147.26 -40.74,53.35 -183.4,14.39 -80.5,-16.07 27.54,-8.16 76.05,-28.96 65.61,-64.82 -13.72,-47.11 -9.94,-103.94 10.24,-148.93 3.46,-7.71 20.36,-45.91 24.16,-49.96 25.82,-45.57 34.25,-79.88 74.31,-119.52 30.27,-29.96 77.2,-66.14 71.32,-116.42 -2.87,-24.6 -71.18,33.19 -86.1,20.3 -12.03,-10.4 -50.26,54.38 -59.53,66.14 -45.06,57.14 -87.77,-17.76 -61.95,-51.36 7.52,-9.79 32.54,-4.98 61.42,-28.47 33.59,-27.32 43.39,-17.13 62.59,-67.88 15.72,-41.54 18.67,-107.87 45.21,-130.21 13.77,-11.6 47.47,67.4 56.65,81.49 23.53,36.1 24.46,32.21 56.59,53.9 62.9,42.46 -24.39,60.68 100.73,95.78 30.5,8.55 76.41,38.1 52.16,-12.44 -25.24,-52.61 11.97,-107.77 -45.66,-99.22 -70.95,10.53 -59.5,-21.54 -102.96,-59.53 -32.19,-28.14 -43.81,-109.57 -38.25,-150.17 6.65,-48.5 8.59,-14.22 -11.04,-63.09 -11.02,-27.43 2.9,-61.05 25.59,-77.67 25.2,-18.45 52.32,-69.74 73.86,-94.84 16.12,-18.78 47.52,-48.16 66.37,-67.01 61.51,-44.88 75.35,-110.69 50.61,-90.83 -52.32,42 -89.02,-9.01 -47.21,-37.38 87.49,-59.38 22.36,-136.53 121.3,-198.89 56.77,-35.79 60.79,-142.55 155.35,-95.55 24.94,12.4 13.64,48.43 67.2,62.36 18.21,4.74 13.95,33.85 57.98,43.66 26.36,5.87 42.07,40.39 71.25,18.4 18.57,-13.99 -17.97,-49.48 -38.48,-55.33 -24.67,-7.03 -51.85,-38.81 -93.7,-50.38 -73.26,-20.26 -11.02,-59.01 -35.72,-95.14 -5.37,-7.85 31.06,-50.06 15.88,-86.97 -0.8,-1.95 -2.55,-20.4 -1.44,-23.59 6.99,-1.45 -6.63,-9.35 15.31,-15.12 15.05,-3.96 37.49,-45.06 -54.77,-7.06 -9.39,3.87 -108.8,38.93 -115.21,23.62 -17.12,-40.85 -4.49,-15.79 -42.33,-18.76 -46.75,-3.66 46.54,-92.72 56.66,-100.31 26.53,-19.9 18.3,-18.05 50.16,-32.43 31.46,-14.19 32.8,-23.58 77.63,-39.69 47.75,-17.15 79.37,-19.18 130.18,-40.78 19.85,-8.44 36.91,-12.08 58.09,-15.76 50.49,-37.16 64.17,-65.36 112.79,-96.57 33.67,-21.61 77.32,11.21 137.47,-17.2 20.3,-9.59 81.86,-13.91 101.64,-0.99 16.2,10.58 18.27,61.91 6.62,83.35 -17.57,32.32 -25.79,97.81 38.82,56.2 39.41,-25.38 77.8,-13.49 123.9,-18.07 10.37,-1.03 32.27,-27.15 -37.05,-16.96 -30.18,4.44 -55.42,1.27 -75.4,-24.16 -6.26,-7.96 9.72,-37.74 -4.95,-66.03 -17.49,-33.74 53.59,-46.02 69.77,-42.45 72.6,16.03 44.93,15.9 106.29,-19.95 32.46,-18.98 40.66,5.89 93.02,-54.55 45.74,-52.79 74.82,-39.03 119.52,-68.37l50.27 -48.95 14741.82 7.03 0 24004.87 -19000 0 0 -6988.38 38.93 52.92c-2.81,23.83 -10.33,47.01 -13.23,68.56 -0.96,7.11 5.75,81.86 6.96,90.42 4.85,34.32 -22.26,60.7 7.14,73.51 46.59,20.29 59.48,-2.67 92.95,5.64 57.5,14.27 -1.09,4.65 34.51,-68.91 17.37,-35.9 -36.46,-43.54 -60.86,-43.54 -40.19,0 20.48,-46.24 7.6,-104.1 -14.62,-65.67 -8.35,-98.96 -36.7,-165.78 0,-12.54 -3.88,-69.79 -1.21,-75.52 55.9,-119.75 146.19,-81.09 214.2,-135.81 21,-16.9 71.71,-27.82 93.93,-7.07 54.48,50.88 36.72,102.61 104.51,6.73 13.4,-18.96 113.06,-52.81 138.57,-59.19 50.29,-12.59 64.48,-59.78 115.32,-18.86 44.82,36.08 61,1.02 93.81,47.29 63.48,89.52 100.76,59.18 91.97,56.13 -43.26,-15.03 -16.78,-15.91 -32.1,-39.58 -21.74,-33.58 -33.19,-61.57 -79.26,-62.63 -47.94,-1.11 -49.04,-23.52 -78.17,-40.14 -22.7,-12.95 -87.54,4.53 -123.25,4.53 -91.8,0 -175.04,50.62 -254.12,39.35 -44.53,-6.35 -121.02,36.67 -159.2,57.68 -28.99,15.95 -113.57,32.31 -139.21,14.21 -33.95,-23.95 4.21,-24.04 -63.09,-43.77l0 -157.43 87.88 0.01c15.94,-7.84 63.99,6.44 115.33,-20.95 46.05,-24.56 85.59,-42.13 125.33,-77.18 36.71,-32.38 44.53,-57.78 84.78,-92.38 6.61,-17.12 12.73,-32.02 20.71,-48.6 19.39,-40.31 46.62,-73.23 62.07,-106.59 18.97,-40.95 42.18,-73.78 59.42,-113.66 24.41,-56.49 49.45,-105.35 98.46,-146.77 64.66,-54.65 26.19,-101.12 112.33,-92.04 33,3.48 62.16,1.32 90.3,3.97 54.15,5.09 130.71,-33.46 170.21,-69.13 30.89,-27.89 47.1,-35.09 78.62,-58.32 19.54,-14.41 172.52,-160.29 182.68,-151.28 16.07,14.26 -20.58,54.42 -24.5,60.45 -19.96,30.72 -64.68,58.07 -82.55,78.92 -52.33,61.03 -58.85,97.55 -52.05,178.71 13.17,28.36 24.44,59.98 45.89,81.49 42.55,42.67 61.26,171.98 39.77,227.73 -34.86,90.44 20.09,151.9 0.11,205.5 -36.57,98.14 -86.26,75.09 -113.89,164.17 -18.1,58.35 -23.37,82.64 -48.6,143.97l-5.83 12.55c-28.65,50.71 -38.8,104.12 -45.43,161.09 -6.05,51.97 24.66,131.3 23.47,169.45 -1.32,42.18 15.89,86.54 18.52,122.77 2.16,29.69 19.34,83.91 13.35,107.75 -10.89,43.32 -24.81,120.82 16.1,154 38.91,31.56 56.47,41.6 108.14,54.24 19.05,7.41 26.95,8.9 46.75,11.9 56.42,8.55 80.84,-12.18 119.14,-13.34 39.44,-1.2 33.7,4.72 78.17,-6.5 111.67,-28.16 44.34,67.33 100.43,105.38 59.43,40.32 -0.73,107.67 -3.18,138.91 -3.91,49.84 -14.7,51.76 -35.72,92.37 -25.52,49.31 -62.59,77.99 -88.63,118.2 -8.91,13.75 -27.42,90.16 -32.73,111.88 -26.57,108.67 -58.28,-29.09 -55.57,-56.32 6.12,-61.49 -2.73,-13.55 -45.09,-5.93 -31.82,5.71 -51.48,55.61 -51.93,84.1 -1.39,87.31 -14.81,24.26 -34.29,-6.27 -19.95,-31.28 -16.69,-59.36 -55.45,-52.28 -43.17,7.89 -32.76,-26.47 7.49,-46.83 18.88,-9.56 32.62,-44.17 24.15,-51.94 -15.29,-14.02 -28.53,-58.23 -54.13,-59.64 -50.53,-2.79 -54.61,79.06 -92.26,108.59 -55.55,43.58 -56.12,143.46 -49.4,206.38l3.74 11.22c39.04,91.03 13.89,94.9 14.78,173.34 0.69,60.46 -58.21,40.65 -44.98,87.85 13.5,48.16 -26.07,75.44 -59.98,51.47 -81.85,-57.84 -59.32,24.36 -131.39,10.93 -57.98,-10.8 -49.91,27.21 -7.6,38.59 103.76,27.9 35.64,40.15 43.2,84.56 15.75,92.54 -28.07,75.24 -86.78,100.77 -34.07,14.81 -83.57,28.3 -120.42,27.43 -17.68,-0.41 -111.05,-35.5 -97.64,3.86 3.24,9.51 48.77,43.3 64.07,62.07 37.07,45.46 86.96,14.43 7.6,115.2 -20.99,18.68 -30.08,26.56 -49.93,47.74 -44.99,48.02 -79.85,23.22 -86.33,39.58 -16.15,40.74 64.86,60.56 69.24,75.74 12.21,42.27 -48.61,52.75 -46.75,76.39 2.08,26.5 16.89,75.41 39.91,91.17 34.41,23.58 -3.64,5.22 -12.88,47.06 -11.68,52.88 23.39,44.69 39.11,69.13 13.23,20.56 -21.17,87.03 -40.44,101.42 -66.61,49.74 -108.91,2.15 -86.56,107.94 0.37,13.13 -4.7,30.59 -8.27,43.25 -9.97,35.35 7.91,48.41 -20.08,65.35 -10.05,6.08 -67.95,1.9 -57.64,23.7 20.5,43.33 104.32,10.51 129.65,11.79 65.07,3.27 58.22,39.34 82.36,54.13 32.19,19.72 62.4,68.29 91.51,72.87 35.32,5.56 -4.96,-43.54 -9.94,-50.8 -24.8,-36.21 0.75,-24.3 -45.55,-76.43 -100.91,-113.61 84.4,-36.71 119.75,-15.19 32.74,19.93 69.16,34.55 76.39,76.39 9.86,57.06 26.46,26.02 44.98,54.47 15.22,23.38 42.4,75.63 14.89,99.1 -77.41,66.03 -124.96,17.22 -67.36,157.09 17.9,43.47 18.59,78.45 39.58,116.64 4.13,8.99 20.92,63.17 22.26,71.55 7.74,48.34 12.4,40.9 4.53,88.08 -16.3,97.73 -30.09,74.8 -91.51,132.85 -64.25,60.74 -29.41,55.54 29.79,47.97 38.74,-4.95 47.51,3.12 82.66,-0.91 51.27,-5.87 53.04,-40.61 77.6,-14.32 57.15,61.15 2.35,135.81 18.86,155.01 16.93,-2.88 90.39,-72.69 113.67,-80.82 50.68,-17.69 76.17,12.86 116.41,34.51 51.28,27.6 98.46,44.52 150.93,74.09 27.38,1.9 57.3,26.17 80.92,40.02 19.16,11.24 62.71,1.49 75.18,-14.43 46,-58.73 48.89,-46.97 114.45,-78.74 50.99,-24.7 55.68,13.99 73.3,18.86 27.66,7.66 31.61,7.53 44.97,-11.9 84.21,-122.48 -45.12,-91.22 -27.44,-168.05 24.87,-108.04 54.37,-18.95 105.72,-18.49 62.84,0.57 66.01,71.06 84.56,85.66 41.36,32.57 -53.64,66.95 -73.41,73.1 -54.24,16.87 -12.2,22.64 -53.37,47.05 -87.29,51.76 -24.5,77.81 -34.96,147.3 -10.59,70.33 16.76,98.02 -58.77,144.2 -50.6,30.94 -100.62,89.48 -150.48,124.7 -32.44,22.91 -67.19,15.76 -67.13,44.56 0.2,84.54 39.54,61.12 90.83,69.74 41.66,7 84.74,-4.34 126.59,-6.05 61.72,-2.51 29.64,30.5 104.73,-2.3 85.26,-37.25 93.78,93.32 150.25,78.46 23.36,-6.14 83.21,46.12 102.21,11.38 18.09,-33.08 36.51,-22.1 17.95,-55.9 -17.39,-31.66 8.79,-21.3 27.78,-56.89 20.36,-38.16 27.83,-33.72 47.97,-58.55 21.68,-26.73 46.91,-22.07 50.72,-42.22 14.46,-76.36 59.82,-70.81 129.08,-75.18 78.18,-4.94 85.24,-22.8 158.87,-39.69 24.82,-9.67 48.74,-12.73 71.58,-21.16 42.19,-15.58 106.77,-22.45 128.29,-63.09 38.36,-72.43 73.01,-33.85 108.71,-85.31 15.08,-21.74 28.9,-20.42 37.68,-46.07 17.73,-51.82 44.41,-79.12 80.06,-120.39 25.09,-29.04 20.71,-41.65 40.9,-70 54.35,-76.34 57.79,35.22 121.59,4.84 49.72,-23.67 63.72,-7.49 109.12,-4.95 39.31,2.2 55.66,11.26 86.44,15.87 38.47,5.76 -31.96,39.67 -65.35,31.86 -37.24,-8.7 -40.24,-0.97 -69.24,-4.42 -36.97,-4.4 -70.21,33.36 -124.92,36.06 -89.7,4.43 -73.29,42.82 -114.68,92.95 -27.28,33.04 -68.33,18.85 -60.93,65.8 7.49,47.56 56.14,-6 66.03,-14.55 21.79,-18.82 112.19,-88.2 133.73,-90.07 15.18,-1.32 -2.01,-60.84 158.75,-27.67 19,2.16 42.42,15.77 57.23,10.58 54.71,-19.17 24.78,-45.17 65.01,-86.74 31.4,-32.45 73.81,23.93 89.54,48.49 25.34,39.57 43.51,52.51 47.17,103.53 5.43,75.81 41.96,21.63 59.88,60.29 30.32,65.44 100.38,62.79 123.78,88.75 22.65,25.12 3.82,33.82 57.46,79.37 4.62,9.59 15.65,26.33 22.15,34.51 22.88,28.82 53.42,82.66 85.91,41.77 73.06,-91.96 71.43,-6.36 135.81,-55.45 121.73,-92.82 130.3,61.54 168.01,74.54 32.05,11.03 62.84,59.22 82.14,62.29 34.66,5.5 70.2,21.33 87.72,53.67 20.78,38.35 26.6,32.15 47.63,57.23 20.16,24.04 36.07,30.49 54.47,48.95 2.63,2.63 122.27,56.66 130.21,56.99 60.15,2.5 28.87,10.59 31.53,37.16 7.87,78.91 -12.4,43.45 -58.44,43.43 -60.93,-0.02 -31.09,4.53 -90.3,-13.8 -25.6,-7.92 -99.93,-7.85 -124.66,-2.19 -32.8,7.51 -74.66,6.84 -99.56,16.52 -100.28,38.99 42.5,102.08 77.83,119.4 44.7,21.93 75.83,15.13 116.98,38.48 45.25,25.67 46.93,3.99 80.02,8.62 61.61,8.63 70.07,-6.85 112.11,57.87 57.32,88.25 91.32,28.04 113.77,75.75 29.18,62 81.92,66.99 51.93,7.82 -18.83,-37.16 4.05,-35.67 -23.58,-82.02 -26.92,-45.16 -7.94,-51.78 0.75,-84.56 13.8,-52.07 21.28,-62.95 -12.13,-107.08 -15.32,-20.24 -82.48,-59.77 -93.36,-72.19 -26.58,-30.35 -41.03,-29.88 -33.74,-81.01 14.74,-12.16 112.69,-72.46 128.74,-77.6 46.85,-15.01 76.55,-22.29 124.47,-41.35 66.88,-26.61 75.33,-22.96 136.3,-63.84 18.77,-12.58 42.26,-20.65 64.9,-23.25 69.77,-8.01 131.23,-40.28 180.6,-90.3l2.42 -1.1c86.3,-46.35 162.19,-37.06 251.09,-67.12 56.92,-19.25 159.42,-47.89 219.11,-49.63 65.86,-1.92 77.82,-25.81 133.47,-39.69 163.27,-40.72 212.74,-10.19 325.25,-159.96 22.76,-37.48 45.57,-74.76 76.5,-106.4 35.62,-36.44 48.99,-53.26 79.26,-93.02 45.22,-59.38 112.38,-86.22 186.42,-86.33 117.43,-0.17 113.27,0.48 218.97,-54.02 18.89,-9.74 126.47,-93.25 151.57,-112.67 64.51,-49.92 201.7,-108.78 281.02,-118.73 80.97,-10.15 111.66,-20.2 187.63,-55.9l21.21 -7.4c41.74,-14.58 61.99,-19 99.93,-30.4 107.35,-32.24 129.91,-43.06 243.01,-44.22 61.07,-0.63 101.54,5.26 160.71,13.57 59.32,8.33 49.55,29.23 67.7,43.09 64.7,49.41 37.98,129.39 46.3,137.7 31.51,31.46 49.2,78.98 76.5,105.6 21.18,20.66 18.99,18.87 37.27,41.69 48.18,60.13 -12.64,214.79 30.43,252.8 64.03,56.51 96.18,22.29 130.1,58.09 53.72,56.7 135.7,40.79 204.94,56.89 99.44,23.12 106.57,4.29 201.52,-1.01 8.92,-3.17 15.96,-5.05 25.14,-7.39 66.33,-16.89 139.09,-39.6 201.63,-67.62 62.18,-27.85 116.99,-61.33 159.87,-115.72 19.54,-24.78 42.66,-37.9 62.16,-63.1 20.61,-26.64 39.66,-49.78 58.55,-77.88 5.08,-7.56 33.82,-59.97 38.36,-59.88 12.92,0.27 -2.09,27.77 -3.36,30.66 -6.04,13.7 -10.04,14.99 -15.82,25.57 -7.42,13.58 -12.56,21.03 -20.56,33.73 -14.17,22.49 -35.09,34.41 -53.64,64.66 -19.43,31.68 -41.72,43.25 -61.69,72.55 -35.53,52.15 -89.67,74.5 -144.42,100.87 -22.64,10.9 -44.34,16.88 -64.92,27.12 -22.93,11.4 -43.75,18.68 -66.28,29.07 -26.35,12.15 -40.73,12.76 -66.56,21.08 -21.21,6.84 -43.84,11.49 -15.77,26.58 44.48,23.91 75.82,4.62 98.77,10.7 44.32,11.74 70.82,19.45 116.61,0.43 23.85,-9.91 41.22,-16.51 65.37,-25.08 70.83,-25.14 61.46,-35.83 111.3,-79.6 22.16,-19.46 28.66,-42.76 52.18,-64.92 28.31,-26.68 48.52,-58.71 82.68,-78.77 17.17,-10.09 27.92,-19.03 43.37,-29.11 50.59,-32.98 37.02,-62.14 50.94,-76.79 24.58,-25.88 34.39,26.92 64.94,8.66 29.93,-17.9 49.96,-47.53 78.88,-66.32 36.76,-19.02 29.43,-15.32 68.85,-23.98 24.06,-5.28 88.64,-39.38 115.34,-51.82 25.62,-11.94 21.89,-26.68 -2.19,-34.11 -37.09,-11.46 -73.12,-10.28 -111.13,-5.41 -14.95,1.92 -45.76,10.89 -58.53,3.08 -15.58,-9.52 -46.27,10.6 -61.67,18.92 -41.45,22.41 -39.44,-29.19 -47.96,-53.26 -6,-16.91 -8.44,-30.37 -26.78,-27.87 -30.45,4.16 -47.07,29.82 -63.07,51.02 -7.91,10.5 -41.88,75.68 -43.88,76.36 -21.48,7.26 -4.85,-37.18 0.83,-46.08 10.94,-17.16 8.09,-23.36 13.89,-34.51 13.05,-25.08 19.5,-54.02 29.54,-79.15 8.75,-21.9 4.51,-91.87 0.4,-114.98 -9.15,-51.44 -6.28,-117.49 12.05,-166.97 18.11,-48.9 50.24,0.14 88.21,-14.67 12.63,-4.93 34.72,-4.83 47.07,0.23 11.33,4.64 26.97,-0.98 38.04,-3.16l5.77 -0.43c46.74,-3.52 65.08,-4.84 111.52,0.87 46.11,5.67 49.73,4.69 89.28,-14.78 32.38,-15.94 26.05,-4.19 44.51,-1.7 25.83,3.49 43.52,-10.82 58.49,-29.43 19.91,-24.75 44.98,-53.55 72.76,-68.96 5.4,-5.4 11.06,-11.38 16.54,-16.59 17.57,-16.75 35.83,-38.77 51.65,-57.72 25.98,-31.13 44.49,-67.33 72.04,-97.96 40.94,-45.5 74.27,-89.37 104.34,-143.14 13.78,-24.63 39.71,-59.37 49.12,-81.81 17.36,-41.36 33.53,-82.99 58.21,-120.71 1.88,-5.27 4.31,-9.65 6.18,-15.06 12.96,-37.47 24.52,-86.56 30.63,-125.95 8.55,-55.08 14.15,-82.29 11.54,-139.51 -2.01,-43.92 2.86,-71.02 8.77,-114.21 0.66,-4.82 -0.82,-36.55 6.21,-23.98 15.72,28.13 14.06,33.45 14.06,64.33 0,14.62 -5.46,38.83 -5.29,50.77 0.29,20.27 -2.83,37.22 -3.36,56.88 -0.85,32.1 2.58,26.35 -3.91,62.84 0.17,6.5 -1.03,15.08 -1.33,22.04 -0.89,20.76 -3.9,32.19 -6.44,51.22 -4.52,33.84 -14.07,71.35 -25.54,103.52 -17.55,49.26 -40.29,96.32 -64.53,142.49 -10.38,19.75 -27.99,51.23 -39.09,69.01 -2.63,3.35 -5.9,7.3 -8.31,10.68 -8.99,12.59 -16.29,21.27 -25.37,33.15 -19.19,25.12 -37.26,47.59 -56.88,72.1 -11.61,14.5 -24.15,49.22 -37.1,56.11 -11.98,6.39 -12.81,12.41 -21,21.17 -26.88,28.77 -26.08,40.25 -45.75,68.07 -11.03,15.59 -29.03,26.12 -36.44,35.23 -27.51,33.82 -55.74,50.34 -85.16,79.7 -20.38,20.35 -27.81,14.92 -16.38,45.48 13.87,21.44 36.63,30.49 61.84,26.12 25.55,-4.43 98.23,-8.83 120.73,-6.28 62.47,7.08 46.99,28.6 105.83,29.11 69.31,0.6 94.99,-18.75 163.93,0 44.03,11.97 92.25,8.11 114.98,-38.48 39.39,-80.75 1.55,-74.49 1.55,-136.15 0,-64.02 -31.15,-88.36 -30.43,-131.65 1.24,-74.58 7.11,-111.63 56.89,-169.98 5.43,-5.59 5.83,-5.76 9.03,-13 27.35,-61.93 9.56,-90.58 -31.52,-133.96 -24.89,-26.28 -6.79,-87.09 7.07,-116.3 17.02,-35.87 -5.56,-127.08 -19.84,-162.72 -15.07,-37.6 -23.92,-70.29 -37.5,-108.03 -24.99,-69.43 -23.12,-75.32 -62.84,-143.88 -21.62,-67.52 -55.92,-154.03 -43.77,-224.44 6.48,-37.5 5.63,-65.93 8.39,-101.98 8.36,-109.21 -5.74,-175.81 -21.5,-282.24l-2.65 -11.56c-7.45,-42.48 -13.27,-71.41 -22.95,-113.35 -35.94,-155.78 -33.58,-220.77 -16.28,-375.83 11.74,-105.29 -33.77,-99.12 7.37,-233.82 31.46,-103 45.13,-217.66 50.38,-325.1 -3.3,-9.82 -7.47,-19.67 -7.6,-30.2 -0.31,-25.72 40.44,-70.14 62.07,-83.91 32.31,-20.59 45.41,-27.14 78.13,-51.56 67.4,-50.31 113.62,-118.41 141.59,-197.45 25.01,-70.69 25.16,-211.12 12.89,-284.21 -24.32,-144.82 3.75,-83.19 50.49,-185.88 26.68,-58.61 73.13,-110.08 105.38,-164.16 27.61,-46.3 22.54,-67.11 59.76,-109.92 13.42,-19.85 37.76,-75.87 50.16,-88.1 68.94,-68.01 123.53,-24.97 199.76,-50.81 88.36,-29.95 129.46,-40.43 210.8,-91.39 89,-55.76 198.08,-56.67 261.6,-111.35 14.33,-12.34 49.76,-63.26 62.52,-58.85 20.59,7.11 11.04,177.58 10.24,196.77 2.11,9.3 2.29,17.96 4.31,28.24 10,50.86 70.68,107.6 111.2,138.98 50.7,39.26 88.38,20.59 113.47,71.55 41.97,85.25 62.22,79.82 119.63,145.22 65.78,74.93 117.4,27.13 131.27,135.51 12.1,94.5 33.67,170.13 75.75,255.74 0,59.59 10.46,89.84 51.93,131.31 42.78,42.77 110.15,54.32 168.89,46.3 53.26,-7.28 41.31,76.75 106.59,109.23 57.74,28.74 192.09,-16.48 234.04,-62.82 71.88,-79.39 54.6,-90.45 166.16,-126.13 70,-40.03 128.7,-118.45 193.15,-166.8 76.59,-57.46 61.93,-178.55 44.98,-260.5 -21.38,-103.34 -16.51,-196.05 -29.45,-297.78 -13.94,-109.61 -33.04,-206.46 -39.35,-318.71 -0.75,-34.1 4.57,-98.25 14.56,-131.27 13.27,-43.86 19.93,-89 29.97,-133.54 12.46,-55.23 28.61,-81.46 47.1,-133.05 21.74,-60.68 45.56,-227.4 31.41,-287.82 -14.58,-62.22 11.64,-116.84 54.69,-161.67 46.28,-48.19 -18.3,-119.03 -66.26,-135.35 -55.97,-19.05 -58.28,-14.72 -106.85,3.97 -32.82,12.62 -60.39,53.13 -65.24,86.21 -14.47,98.6 -39.17,121.48 -127.23,65.24 -41.17,-26.29 -69.3,-16.19 -80.7,-60.85 -10.62,-41.61 -89.84,-47.47 -125.68,-47.17 -84.57,0.72 -122,-118.36 -136.26,-182.57 -4.75,-25.39 -16.19,-62.55 -19.5,-84.78 -22.05,-148.12 -128.35,-49.18 -103.64,-204.15 9.36,-58.71 6.58,-36.66 5.29,-93.7 -0.65,-28.49 2.63,-61.49 36.13,-60.66 47.71,1.18 56.72,-8.56 101.68,-13.99 50.94,-6.15 73.46,-43.4 24.38,-44 -104.74,-1.28 -48.79,-40.43 -111.58,-38.58 -24.29,0.71 -126.85,63.78 -79.83,-40.56 27.78,-61.64 -82.51,-127.44 -67.36,-165.48 7.06,-17.71 83.04,-60.96 102.62,-64.71 62.4,-11.96 63.68,-61.54 33.99,-62.63 -68.37,-2.52 -116.03,65.37 -135.17,-49.41 -8.27,-49.57 8.52,-60.1 14.21,-91.92 13.91,-77.77 82.6,35.17 40.03,-120.5 -9.51,-40.21 5.27,-49.39 0.98,-80.73 -9.59,-70.1 136.11,-25.93 176.29,-75.71 47.26,-58.55 108.67,-23.04 154.55,-49.6 68.77,-39.8 69.65,-2.71 112.27,-19.2 99.44,-38.48 23.51,-103.57 29.75,-139.43 4.96,-28.53 53.31,10.9 76.38,15.42 131.44,25.77 71.1,-52.14 74.43,-68.45 9.23,-45.3 62.63,-15.99 68.11,-45.21 9.56,-51.03 8.45,-53.94 57.34,-91.39l8.51 2.64c37.02,9.3 134.63,62.54 152.21,64.59 44.77,5.24 93.08,12.33 132.85,-11.33 32.06,-19.07 22.89,-7.83 42.22,-14.89 30.29,-11.07 -7.31,-130.41 25.26,-138.68 49.71,-12.63 74.36,89.69 130.85,64.93 65.53,-28.72 79.56,15.52 133.09,3.29 23.28,-5.32 28.8,-82.33 123.59,-16.52 78.47,54.47 88.9,-7.56 171.83,-35.72 74.71,-25.37 28.01,-67.33 21.74,-120.83 -4.93,-42 12.9,-21.9 35.49,-5.18 8.65,3.18 12.83,2.47 21.47,3.39 45.22,4.85 67.99,60.79 93.62,48.31 48.39,-23.56 -9.28,-176.42 48.95,-92.18 16.86,24.37 39.34,36.37 41.01,65.04 2.47,42.43 51.47,18.99 62.64,1.55 59.83,-93.42 52.75,77.95 97.1,-21.01 16.39,-36.6 43.01,-5.28 73.33,9.22 53.96,25.81 170.63,-11.12 246.17,49.18 48.74,38.9 74.3,28.73 118.54,51.59 86.53,44.72 91.84,-102.41 154.51,12.77 55.44,101.88 111.43,50.79 158.53,113.44 55.03,73.2 165.18,57.94 242.78,37.83 43.6,-7.54 129.61,-9.74 176.17,-6.95 57.37,3.44 36.28,3.68 83.46,21.96 57.09,22.12 74.77,-35.36 206.72,36.59 77.87,42.46 130.3,20.77 200.85,-18.18 59.04,-32.6 105.37,-113.7 105.61,-180.94 0.15,-43.23 -4.41,-93.47 -0.57,-136.91 10.51,-118.9 -109.37,-141.94 5.86,-232.08 26.06,-20.38 41.24,-59.31 61.61,-58.96 64.81,1.11 58.11,104.36 69.14,140.34 7.57,24.69 14,49.78 44.22,45.85 69.52,-9.03 92.36,6.06 111.88,-79.37 16.1,-70.47 14.72,-113.09 41.01,-187.52 10.32,-21.03 17.72,-25.38 41.24,-19.61 106.13,26.04 105.82,87.72 178.59,104.5 155.47,35.86 98.64,-44.72 158.07,-45.31 55.97,-0.56 105.8,-87.64 124.7,-132.94 21.7,-52.03 4.13,-120.28 65.13,-127.57 39.71,-4.74 76.26,3.07 127.68,-4.95 47.02,-7.34 95.87,-33.51 131.83,-2.12 33.63,29.36 79.45,18.32 129.77,40.15 69.93,30.33 118.62,-16.83 150.62,33.86 13.83,21.91 101.46,55.91 126.09,60.71 38.52,7.5 139,48.39 171.46,26.46 69.02,-46.65 46.07,-51.31 46.07,-124.21 0,-108.63 -62.74,-100.75 -85.53,-140.57 -24.49,-42.78 -29.78,-42.08 -65.39,-69.47 -83.23,-64.01 -6.79,-67.45 -127.99,-112.98 -61.09,-22.95 -101.76,-78.86 -153.84,-82.25 -79.44,-5.17 -98.79,-1.03 -170.92,39.24 -96.02,53.59 -196.68,30.17 -294.48,-4.2 -37.1,-13.04 -119.99,-78.13 -141.03,-111.99 -26.84,-43.22 -34.49,-56.35 -70.75,-98.01 -12.08,-16.2 -28.59,-36.57 -41.69,-51.94 -41.66,-48.89 -63.57,-44.38 -119.03,-44.41 -86.39,-0.05 -72.91,-101.36 -99.33,-145.52 -27.34,-45.69 -35.24,-44.55 -58.55,-100.55 -5.21,-12.51 -41.25,-67.7 -20.83,-67.92 44,-0.47 95.01,97.44 139.02,120.73 22.91,12.13 43.75,39.93 51.37,13.11 7.19,-25.27 -20.3,-73.92 -20.3,-113.01 0,-50.16 -35.07,-104.1 -32.73,-117.17 2.89,-16.16 91.12,-7.69 46.37,-74.54 -24.91,-37.22 62.75,-165.5 6.24,-154.1 -21.5,4.33 -143.15,77.42 -169.37,89.73 -16.45,14.5 -74,51.58 -96.34,57 -33.39,8.1 -61.06,43.46 -77.61,72.31 -27.51,47.97 -92.86,100.87 -144.53,119.06 -69.27,24.37 -159.75,-10.46 -221.04,1.66 -99.28,19.63 -47,-114.82 -123.83,-32.62 -29.48,31.55 -50.4,44.69 -77.6,70.99 -91.2,88.13 -84.32,-39.42 -204.6,-5.64 -59.72,16.77 -47.36,21.45 -88.22,-22.83 -12.96,-14.04 -89.6,-31.57 -106.59,-28.19 -30.62,6.08 -14.57,19.33 -83.35,27.55 -56.59,-0.95 -80.19,46.36 -114.64,65.47 -99.9,55.43 -134.35,-51.15 -203.39,25.36 -63.02,69.84 -74.66,20.35 -115.43,38.59 -36.07,16.14 -36.03,44.69 -32.44,76.32 5.61,49.38 -37.64,51.68 -69.88,29.74 -61.87,-42.1 -75.3,-5.29 -101.64,-32.84 -49.54,-51.82 -61.4,-1.55 -110.03,-1.55 -57.49,0 -37.69,-75.47 -68.33,2.64 -6.78,17.28 -33.78,49.35 -31.98,59.19 6.91,37.96 15.13,18.19 8.16,65.4 -6.32,42.84 -76.89,67.92 -112.49,68.56 -0.8,0.01 -70.99,-18.62 -76.69,-20.71 -40.3,-14.8 -91.39,12.27 -105.95,49.81 -20.77,53.56 -63.14,54.25 -86.33,5.94 -25.72,-53.59 -54.18,-40.86 -78.85,6.53 -36.68,70.49 -80.72,15.27 -108.21,5.94 -15.29,-5.19 -90.87,25.81 -101.33,29.22 -118.23,6.46 -149.92,104.27 -250.34,135.46 -40.27,12.51 -117.18,42.78 -155.27,32.32 -60.05,-16.48 -62.27,-8.75 -114.23,23.51 -47.44,29.46 -67.61,37.63 -44.71,88.49 25.05,55.64 -13.27,96.69 -54.01,72.23 -15.37,-9.22 -63.9,-29.54 -81.39,-29.22 -52.91,0.97 -64.21,-25.85 -108.59,-17.31 -115.63,22.27 -117.09,81.33 -240.54,71.21 -57.22,-4.69 -55.36,-1.75 -108.37,22.83 -86.8,40.26 -117.55,122.34 -202.18,129.42 -88.46,7.41 -46.29,-29.04 -161.74,13.46 -20.21,7.75 -39.04,15.71 -59.76,23.17 -43.12,15.54 -53.03,12.38 -90.94,20.38 -38.26,8.06 -82.54,16.87 -99.1,55.78 -34.89,81.95 -124.57,62.7 -115.67,28.88 8.34,-31.65 60.65,-85.71 93.59,-92.15 63.02,-12.32 -29.39,-120.11 -43.84,-125.45 -41.46,-15.33 -51.29,87.41 -92.61,92.03 -51.11,5.72 -62.79,-54.63 -68.33,-90.26 -7.58,-48.7 -28.27,-49.97 5.81,-88.9 49.75,-56.81 22.94,-46.05 8.17,-72.42 -13.27,-23.68 52.22,-135.35 -38.29,-63.91 -48.41,38.21 -40.02,52.5 -66.79,93.35 -29.6,45.18 -45.53,68.18 -94.15,42.34 -88.92,-47.26 -95.06,30.99 -155.12,1.62 -68.12,-33.3 -19.33,-120.02 -45.52,-161.47 -14.48,-22.92 5.68,-51.56 24.46,-64.71 46.42,-32.51 -5.22,-61.21 -37.69,-75.52 -47.41,-20.9 -42.66,-23.99 -68.33,-59.53 -39.39,-54.5 -173.4,36.79 -172.44,-79.94 0.47,-57.23 16.98,-61.66 1.33,-117.52 -7.49,-1.2 -14.76,-9.99 -17.43,-16.78 -11.22,-28.49 -6.95,-14.75 -23.25,-25.44 -11.94,-7.83 7.38,-93.54 -20.63,-94.04 -42.62,-0.76 -75.77,41.34 -99.68,70.8 -53.92,66.45 -71.02,9.43 -65.69,-48.5 5.39,-58.72 -21.51,-24.43 -33.38,-47.96 -18.81,-37.31 56,-84.87 82.67,-96.27 28.36,-12.14 -55.9,-65.24 -72.31,-69.55 -29.19,-7.67 -27.11,-39.47 -29.1,-68.57 -7.09,-103.7 -82.96,20.39 -102.24,45.44 -13.55,17.59 -32.04,56.39 -52.54,54.2 -42.95,-4.6 -34.49,-72.21 -95.71,-93.59 -41.68,-14.56 -44.3,-54.39 -77.07,-70.11 -37.95,-18.22 -35.05,-56.75 -11.45,-59.64 38.33,-4.7 -18.2,-69.43 -15.65,-84.22 8.54,-49.48 86.87,19.96 58.86,-43.36 -20.23,-45.71 -34.52,-84.41 -49.83,-132.93 -8.64,-33.03 -61.16,-74.86 -85.76,-100.2 -15.09,-15.54 -48.86,-71.54 -37.27,-93.29 22.1,-41.49 31.59,-27.61 58.55,-43.65 34.68,-20.65 84,17.54 58.85,-44.99 -22.17,-55.15 11.11,-65.62 -25.89,-125.1 -74.86,-120.35 45.05,-28.55 66.03,-59.31 19.81,-29.03 14.75,-73.7 5.64,-105.16 -17.34,-59.81 9.76,-93.66 -6.09,-120.65 -21.28,-36.22 22.25,-42.9 47.62,-49.81 73.18,-19.94 -37.46,-97.57 8.93,-147.49 35.3,-38 27.12,-110.25 24.49,-156.79 -2.47,-5.96 -4.69,-11.34 -9.26,-16.1 -28.59,-29.74 -8.23,-59.33 34.96,-36.81 46.35,24.16 -11.29,-45.01 -16.1,-50.81 -27.13,-32.69 -21.72,-84.34 14.89,-70.56 58.99,22.2 -19.95,-79.86 -26.91,-98.01 -47.11,-122.9 65.94,-132.05 -0.57,-228.11 -56.82,-82.09 33.96,-110.22 -34.7,-205.25 -47.14,-65.25 26.8,-137.33 -65.84,-213.89 -65.34,-54.01 -69.51,-71.55 -101.52,-154.67 0,-67.67 6.35,-104.6 12.35,-168.47 10.3,-109.42 101.78,-146.59 59.2,-251.54 -32.61,-80.37 -15.24,-77.82 -27.79,-151.3 -5.18,-30.38 -5.28,-47.77 -8.92,-75.03 -8.48,-63.58 -39.26,-39 -74.34,-24.27 -43.36,18.21 -42.74,-70.52 -42.53,-95.48 0.71,-85.04 -44.97,-55.88 -40.78,-105.95 4.56,-54.52 6.51,-39 -18.75,-82.13 -11.22,-19.16 -30.26,-36.09 -27.55,-53.79 4.51,-29.55 28.25,-24.68 40.67,-26.46 10.51,-1.5 17.37,-60.77 -9.38,-69.13 -44.98,-14.06 -36.81,13.47 -36.81,-83.12 -8.75,-28.68 11.66,-74.66 29.97,-96.68 80.93,-97.33 3.27,-92.1 8.5,-136.6 16.46,-139.91 83.24,-76.69 83.24,-150.9 0,-54.98 49.49,-46.68 92.49,-48.41 97.9,-3.94 32.67,-97.98 55.68,-175.08 26.53,-88.92 -25.96,-75.62 -20.83,-122.58 5.35,-48.93 39.85,-47.58 80.36,-48.95 38.16,10.71 54.84,38.86 82.81,36.29 19.89,-1.84 66.29,-3.23 47.4,-28.24 -31.88,-42.2 -25.77,-39.44 -40.25,-89.5 -14.79,-51.13 -38.8,-128.87 -15.65,-178.94 55.13,-119.24 98.36,-15.21 107.8,-12.36 8.5,2.57 90.62,-55.85 140,-48.38 66.55,10.06 63.79,-63.35 153.16,-18.52 65.86,33.03 149.27,37.53 194.13,-30.77 27.85,-42.41 30.1,-47.25 72.01,-32.96 31.41,10.72 26.3,-38.1 22.03,-54.01 -11.93,-44.43 -45.52,-118.96 -70.23,-153.8 -4.39,-10.44 -6.84,-18.13 -10.69,-28.35 -9.64,-25.55 -59.41,-88.23 -51.83,-106.48 19.91,-47.91 73.71,-19.4 100.78,-19.72 56.53,-0.67 14.7,-43.69 3.32,-61.09 -36.8,-56.23 19.7,-109.79 50.57,-31.75 19.26,48.67 52.3,46.31 55.79,14.44 6.6,-60.07 -8.55,-28.56 32.96,-72.76 25.41,-27.06 -22.2,-102.39 6.96,-148.05 17.19,-26.92 38.3,-15.19 73.74,-58.21 91.91,-111.55 67.82,-37.89 163.47,-29.34 79.16,7.08 28.77,-22.1 43.59,-63.5 38.21,-106.76 -71.24,-88.1 -75.52,-126.43 -8.97,-80.23 -5.65,-81.98 62.59,-66.37 14.11,3.22 53.72,-2.61 65.84,-11.38 28.58,-20.68 11.48,29.71 30.43,35.53 19.71,6.06 13.1,38.27 34.06,28.76 47.31,-21.47 49.35,-38.66 51.48,-83.56 3.25,-68.62 3.6,-129.13 92.72,-113.21 45.5,8.14 43.97,-69.67 91.51,-65.05 55.88,5.42 71.09,-7.4 93.7,-59.76 2.72,-11.96 7.54,-36.19 10.92,-46.98 10.39,-33.16 6.56,-36.99 12.02,-66.68 4.11,-22.31 -24.84,-93.41 8.81,-91.5 10.58,0.6 119.25,87.55 144.31,15.75 24.64,-70.62 19.03,-81.04 63.38,-151.9 50.41,-80.56 -18.12,-88.04 50.62,-137.25 27.59,-19.75 64.25,-24.47 65.91,-52.16 5.51,-91.56 62.29,-45.52 97.9,-124.02 25.59,-56.41 28.58,-69.63 67.36,-124.46 18.11,-44.24 43.66,-65.61 76.73,-97.78 22.9,-22.28 49.14,-38.85 66.37,-55.57 26.67,-25.87 51.22,-48.14 62.93,-84.44 33,-102.32 46.89,-39.28 90.87,-108.93 65.32,-103.48 26.52,-169.53 62.93,-248.6 17.32,-37.62 40.77,-43.73 50.39,-72.19 15.33,-45.35 19.59,-45.98 57.34,-78.73 82.13,-71.28 -18.31,-129.08 36.47,-146.96 38.13,-12.45 37.15,27.31 76.73,-28.88 22.33,-20.13 15.3,-17.36 46.3,-31.87 31.04,-14.52 52.84,-22.57 85.01,-39.91 10.23,-5.52 67.39,-16.92 78.7,-14.66 90.68,18.11 16.9,-91.88 164.45,-33.08 49.99,19.93 55.42,-37.28 79.31,13.38 11.66,24.74 80.95,132.48 79.37,44.87 -0.68,-37.78 15.48,-105.04 9.71,-132.63 -5.81,-27.79 -86.4,-91.67 -14.36,-83.58 46.43,5.22 41.86,-2.77 72.58,34.06 19.55,23.45 37.39,-33.27 16.4,-44.64 -15.91,-8.62 25.3,-43.98 -14.89,-80.05 -85.44,-76.67 41.58,-104.2 -98.54,-203.4 -18.14,-15.75 -30.98,-32.85 -29.22,-59.41 4.5,-68.27 34.51,-69.63 34.51,-140.23 0,-47.52 12.84,-85.66 -1.32,-133.16 -21.43,-71.9 32.02,-100.7 0.34,-138.8 -50.91,-61.22 -7.11,-74.33 28.65,-118.31 24.77,-30.47 -19.67,-144.34 -30.32,-180.03 -16.74,-21.24 -30.45,-49.37 -47.51,-68.56 -39.46,-44.41 -43.5,-47.02 -91.05,-76.96 -54.59,-34.37 -89.58,-14.39 -119.86,-74.42 -44.57,-88.37 -118.56,-62.16 -168.88,-90.95 -82.42,-47.16 -84.77,-2.6 -117.63,-12.47 -44.16,-13.26 6.4,-83.77 -70.12,-135.69 -47.67,-32.36 -22.7,-70.7 -78.72,-75.41 -56.7,-4.76 -29.63,-46.79 -87.51,-65.92 -28.59,-9.45 -27.3,-24.6 -44.34,-25.47 -85.34,-4.35 -81.21,70.06 -102.84,94.04 -28.35,31.41 -28.77,-55.3 -31.11,-64.41 -7.68,-29.88 2.99,-63.49 -23.13,-56.43 -27.87,7.52 -43.63,-0.6 -61.5,5.4 -55.66,18.69 -85.84,90.47 -132.45,62.18 -49.85,-30.26 -99.78,18.94 -123.56,-15.65 -32,-46.55 -20.9,-49.05 -88.86,-35.61 -33.02,4.91 -78.81,4.62 -115.09,8.47 -68.94,7.31 -45.53,10.21 -60.52,62.18 -17.96,62.28 -32.47,-25.21 -44.1,-39.01 -11.3,-13.39 -80.28,-36.4 -94.28,-35.83 -76.81,3.14 -42.03,90.05 -66.14,113.77 -19.49,19.17 -30.94,48.4 -37.8,52.92 -33.54,22.11 -24.36,-40.5 -78.92,-45.74 -83.99,-8.06 -44.57,-62.24 -124.7,-75.74 -48.74,-8.21 -76,-46.69 -91.85,-91.29 -6.36,-17.91 -12.19,-90.91 -34.39,-80.81 -50.93,23.16 0.88,141.13 -55.57,165.37 -16.57,7.11 -38.14,-19.16 -90.94,-5.18 -23.96,6.34 -73.62,-18.91 -91.28,-35.38 -16.14,-15.06 -34.89,-101.83 -76.39,-24.27 -31.28,58.48 -4.54,71.34 -4.08,90.42 0.44,18.56 -59.14,58.96 -39.58,181.99 7.87,49.52 -23.03,58.5 -15.87,105.08 8.68,56.5 -25.08,28.87 -11.38,66.9 13.74,38.12 59.22,80.65 22.95,111.02 -1.22,1.02 -123.32,28.24 -97.56,48.75 16.23,12.93 27.27,29.88 37.57,47.71 16.36,28.32 61.47,47.03 62.74,67.8 2.52,41.04 -46.6,12.78 -72,27.79 -87.68,51.82 -72.5,11.77 -109.8,0.98 -40.84,-11.81 -12.08,-35.21 -73.63,1.78 -35.45,35.31 -70.58,98.08 -124.47,106.7 -48.85,7.8 -54.33,121.88 -118.61,62.29 -25.86,-23.97 -57.35,-9.87 -83.01,-32.17 -41.69,-36.24 -81.98,60.36 -88.44,92.04 -8.35,40.91 -49.06,62.57 -27.9,86.86 48.67,55.86 79.41,3.72 96.05,23.28 44.07,51.8 -51.02,111.57 -55.56,126.33 -2.34,7.58 12.12,41.95 11.67,63.38 -1.02,49.28 12.2,41.06 22.26,70 10.53,30.28 -33.13,98.43 -43.96,133.51 -14.29,46.33 -34.85,48.06 -20.63,101.22 8.85,32.85 38.83,20.32 27.55,48.5 -16.73,41.82 -36.66,26.27 -68.37,28.57 -34.08,2.47 -59.96,6.14 -60.93,41.99 -1.56,57.72 -49.45,27.22 -71.67,54.7 -35.97,44.49 -0.87,80.9 -26.34,127.87 -31.28,57.68 -51.28,2.2 -64.37,90.6 -12.95,87.45 -72.76,57.65 -67.92,89.31 7.15,46.76 43.92,49.9 71.55,64.83 30.12,16.27 78.88,8.45 61.31,47.96 -27.76,62.42 -84.23,32.41 -21.21,95.45 94.88,94.89 -22.11,91.64 -23.02,97.36 -2.7,16.96 37.54,44.08 44.98,48.95 8.86,23.34 4.53,35.42 23.7,54.12 23.67,23.09 36.6,41.67 68.79,31.53 58.97,-18.57 33.43,77.93 71.21,79.82 61.4,3.09 4.08,98.47 9.84,125.23 15.62,72.66 74.66,34.51 83.22,50.39 15.41,28.56 -64.67,121.65 -87.08,139.24 -69.93,54.91 -20.36,63.13 -83.69,121.26 -45.04,41.34 -135.16,72.03 -149.49,132.21 -14.76,62 -43,109.16 -109,124.32 -29,6.67 -58.65,71.87 -72.24,94.38 -3.49,14.92 -14.59,42.76 -19.96,59.54 -12.04,37.65 -31.58,78.13 -40.89,112.33 -16.77,61.59 -45.38,108.55 -67.47,166.46 -31.64,82.95 1.43,118.11 -83.58,171.57 -66.19,41.62 -9.45,47.57 -23.47,83.34 -22.7,57.94 -111.31,-20.24 -132.06,88.41 -21.23,111.18 -68.83,79.51 -92.08,113.77 -72.61,107.03 -106.83,37.93 -139.09,64.15 -31.63,25.7 0.36,34.19 -68.15,67.81 -33.18,9.1 -44.15,14 -74.2,-4.96 -30.36,-19.15 -81.32,-19.48 -89.85,26.35 -20.83,111.93 -58.72,23.95 -81.79,92.38 -7.34,21.76 -42.81,85 -65.16,92.72 -97.4,33.62 -23.34,111.32 -46.42,148.28 -8.98,14.38 -81.86,39.06 -92.72,36.25 -52.08,-13.53 -16.33,-92.79 -69.66,-96.35 -37.01,-2.47 -25.67,-48.05 -41.12,-78.05 -7.09,-13.77 -39.63,37.57 -45.1,44.98 -16.83,22.79 9.59,89.12 22.83,111.57 27.9,47.29 -16.48,59.71 -38.25,30.43 -40.06,-53.88 -13.42,-34.3 -75.29,-27.89 -57.42,5.95 -82.61,73.82 -91.4,123.26 -6.62,37.23 25.68,98.27 -24.94,113.2 -78.46,23.14 12.85,71.7 -92.27,127.68 -64.79,34.5 -8.4,65.45 -30.73,93.13 -35.74,44.3 -85.17,6.11 -117.21,-22.26 -23.07,-20.42 -83.73,-4.99 -103.3,9.72 -44.61,33.54 -18.42,45.9 -96.23,91.05 -35.98,54.27 -41.13,53.55 -31.42,112.79 5.57,33.96 31.17,44.15 38.14,54.66 13.44,20.24 -33.39,34.29 -15.65,77.4 21.62,52.55 -54.58,108.38 -54.58,13.69 0,-40.74 17.71,-89.99 -27.78,-69.47 -78.23,35.29 -81.25,-29.79 -110.78,21.62 -44.48,77.43 -65.24,37.22 -104.1,64.71 -57.36,40.56 35.42,57.55 60.74,63.38 45.94,10.59 86.78,-8.56 98.69,37.69 11.09,43.01 -31.78,40.15 -55.03,43.13 -22.46,2.87 -35.44,59.56 -37.23,78.5 -1.75,18.66 -14.51,61.81 -28.24,76.05 -51.69,53.61 -78.29,-45.67 -107.49,-19.05 -38.04,34.68 24.25,100.74 -35.84,121.03 -61.52,20.77 -47.5,108.05 -111.01,23.13 -27.31,-36.52 -53.18,-6.15 -79.9,-19.38 -74.98,-37.12 -56.52,-55.66 -79.49,-128.1 -6.2,-19.54 -11.9,-129.63 -26.8,-62.86 -22.97,102.91 24.3,89.55 23.81,129.23 -1.18,94.36 18.38,86.06 42.34,165.02 -4.85,24.32 -2.21,72.75 9.26,95.25 24.67,48.43 -44.88,89.58 -6.28,105.84 45.88,19.33 96.36,59.01 47.18,107.91 -8.31,8.26 -52.36,33.18 -64.15,38.93 -78.53,38.33 -46.86,70.76 -70.23,110.56 -35.85,61.07 -77.92,-30.35 -100.99,-7.37 -39.16,39.01 -24.85,111.86 -17.2,159.51 11.07,68.93 -44.67,12.64 -51.6,-6.96 -20.85,-58.94 -69.21,-29.82 -103.18,-96.87 -39.4,-77.77 -51.97,-62.28 -101.87,-1.1 -59.57,73.03 -29.27,44.44 -37.38,112.56 -8.99,75.58 18.37,126.34 66.49,184.76 10.71,39.77 36.75,31.35 39.68,66.37 7.09,84.92 111.08,48.24 121.71,65.81 14.94,24.67 -63.69,84.8 -72.42,133.39 -8.44,46.94 -16.48,76.42 -29.44,121.94 -12.65,44.4 -34.75,74.35 -55.23,112.97 -44.01,83.02 9.39,89.75 -87.65,225.81 0.41,11.39 1.61,14.73 4.84,25.66 11.07,37.44 12.34,107.01 24.15,133.09 37.22,82.09 -7.45,87.54 13,135.81 16.26,38.37 116.26,137.47 80.36,176.51 -40.76,44.33 -64.85,-5.82 -92.56,-21.16 -40.22,-22.27 -45.33,-54.82 -76.28,-42.68 -28.56,11.21 -25.61,-46.63 -42.37,-43.32 -22.48,4.45 -14.72,49.23 -12.02,63.16 10.83,55.96 -29.46,37.06 -19.28,122.28 16.62,139.16 -34.32,90.37 -44.86,165.25 -15.94,113.27 109.13,78.67 -22.83,170.43 -4.76,23.84 -9.04,43.39 0.22,66.94 9.48,24.13 15.52,61.97 27.44,75.49 58.92,66.84 10.82,122.59 29.56,142.46 36.64,38.83 -32.1,93.62 -2.64,153.11 15.28,30.87 6.11,88.07 1.43,122.92 -11.38,84.89 4.7,63.5 42,112.79 21.66,28.64 -52.42,91.81 -66.26,106.82 1.85,10.79 3.85,21.27 7.71,31.56 5.72,15.27 63.31,87.21 78.62,98.54 34.42,25.49 14.91,63.35 32.27,98.42 19.16,38.69 14.53,44.81 46.76,77.08 48.54,48.57 -77.67,111.95 -83.23,136.37 -6.79,29.81 37.23,17.59 53.79,55.11 6.17,13.99 20.81,28.34 22.49,32.32 25.37,60.05 57,1.89 64.29,19.5 11.01,26.58 33.02,18.63 63.16,18.63 37.82,0 72.13,-24.88 93.48,-14.55 22.82,11.05 31.55,108.11 37.38,132.3 6.05,37.27 7.32,69.84 38.25,96.91 33.82,29.6 88.48,-43.39 100.65,-70.46 26.51,-58.93 153.61,-120.92 174.74,-38.93 10.99,42.66 11.42,149.91 57.42,168.69 48.68,19.88 28.43,84.86 74.76,107.05 29.84,14.29 52.88,42.31 68.46,71.44 44.98,84.1 71.98,15.79 123.03,54.24 64.95,48.92 71.27,4.4 107.49,91.92 32.93,79.56 73.36,38.72 72.77,60.55 -1.52,56.71 -22.6,60.67 -58.86,86.64 -42.69,30.57 -25.1,74.38 8.36,104.62 20.1,18.17 180.24,16.1 207.92,16.1 2.31,7.28 12.92,47.49 14.22,54.88 8.28,47.32 8.24,42.89 21.62,85.69 18.7,59.84 51.78,47.52 61.19,119.6 9.35,71.57 32.16,124.01 84.33,175.19 46.91,46.02 -7.18,51.62 -15.65,90.18 -10.78,49.04 38.96,31.77 48.27,64.49 19.11,67.18 -16.12,86.08 -69.44,108.59 -39.56,16.7 -124.94,18.08 -143.67,44.11 -47.15,65.55 2.66,82.41 -86.86,171.41 -24.08,15.6 -125.91,73.82 -135.92,83.58 -26.21,25.52 -39.7,34.78 -74.19,45.2 -24.64,7.45 -61.65,45.1 -86.45,63.16 -41.44,30.2 -48.69,76.07 -101.49,76.73 -20.15,33.83 -13.51,32.5 -24.33,54.13 -23.96,47.9 -31.23,-36.12 -86.1,-14.9 -20.06,7.76 -88.11,-10.01 -125.68,9.72 -37.15,19.5 -108.88,58.68 -138.46,5.63 -9.44,-16.93 -11.81,-91.65 0.65,-113.77 21.73,-38.59 44.26,-44.36 40.13,-99.79 -2.36,-31.75 -27.77,-26.18 -19.95,-80.47 5.79,-40.17 -39.42,-21.42 -65.81,-48.72 -16.55,-17.13 -35.63,-8.43 -4.87,26.23 15.52,17.5 33.23,62.07 29.22,87.99 -8.5,54.91 11.58,75.29 -10.02,125.08 -19.38,44.67 -30.59,-42.84 -104.17,-28.43 -68.44,13.41 -24.92,-14.71 -62.86,-58.63 -28.32,-32.78 -39.42,14.03 -69.25,-40.7 -17.67,-32.45 -40.17,-37.79 -30.95,13.38 20.38,113.21 -46.38,136.74 -119.29,57.98 -22.49,-24.29 -37.47,-23.46 -52.81,-36.4 -70.03,-1.86 -37.23,-17.75 -65.8,-29.33 -29.73,-12.05 -50.69,57.67 -128.13,-10.7 -97.91,-86.44 -163.73,42.47 -217.5,35.72 -19.86,-2.49 -62.24,-20.04 -90.83,-23.92 -111.8,-15.18 -78.83,31.96 -166.68,80.17 -14.21,7.79 -69.91,22.66 -59.87,53.44 7.18,22.03 79.04,1.92 93.51,-4.84 74.79,-34.95 83.88,21.38 185.51,-8.27 43.19,-12.61 159.06,-24.02 196.25,4.54 66.49,51.06 25.03,124.94 139.09,143.96 30.16,5.03 75.06,21.92 110.18,29.45 111.07,23.82 65.13,67.28 106.03,129.87 34.59,52.96 54.35,-64.72 181.92,4.95 65.56,35.81 79.2,-21.97 140.98,50.92 83.52,98.56 70.02,-81.3 103.18,-52.46 22.51,19.58 27.42,-25.57 54.25,-29.45 41.59,-6.01 88.72,-20.42 108.71,-55.45 8.94,-15.67 158.49,-28.33 169.11,-35.38l2.64 -2.76 44.26 -24.04zm-5920.75 -9992.42c-0.39,-92.44 -29.36,-23.43 -42.67,-86.85 -20.36,-97.05 -69.15,-58.3 -87.31,-101.98 -5.89,-14.18 -33.75,-22.25 -44.98,-2.99 -9.32,15.98 -42.69,32.09 -61.38,36.7 -55.46,13.68 -58.39,28.37 -98.36,66.49 -8.4,8.01 -74.25,88.91 -54.24,96.23 30.66,11.21 61,-15.52 105.5,-7.94 25.91,4.42 88.97,-22.8 104.85,28.24 6.61,21.25 37.26,51.14 59.87,44.53 22.69,-6.64 49.24,-14.87 64.48,-34.06l54.24 -38.37zm375.72 -415.39c21.2,-19.71 48.38,-37.79 17.19,-50.62 -8.92,-3.67 -39.42,4.89 -67.35,-4.61 -36.64,-12.45 -90.33,33.82 -101.11,72.99 -5.89,21.39 -26.14,64.45 17.54,63.04 29.62,-0.95 67.28,-45.16 87.42,-50.38l46.31 -30.42zm247.38 -1131.11c9.36,-10.95 81.41,-97.4 38.37,-108.48 -17.01,-4.38 -92.18,-19.9 -104.85,-10.92 -10.09,7.15 -25.59,1.14 -59.2,34.74 -22.37,22.36 -31.22,53.6 -52.91,82.02 -8.63,11.31 -18.38,37.18 1.32,46.75 26.92,13.09 19.44,72.31 68.79,48.61 22.5,-10.8 42.6,-25.51 60.74,-42.44l4.09 -2.65 43.65 -47.63zm642.94 -685.27c47.09,-20.71 28.65,-12.42 62.52,-20.19 39.97,-9.17 65.09,-94.6 29.45,-97.66 -15.78,-1.36 -131,77.19 -136.83,78.16 -23,3.83 -103.16,54.21 -59.99,-19.5 31.51,-53.79 -2.63,-98.32 -44.3,-7.3 -16.94,37.02 -67.61,32.93 -66.48,89.55 1.57,78.51 -96.12,83.53 -70.12,122.69 27.35,41.19 -24.38,73.86 -14.55,148.05 3.74,28.24 40.06,-14.85 44.11,-21.28 34.32,-54.42 49.13,-107.64 80.7,-158 18.4,-29.34 58.96,-67.21 92.15,-77.48l83.34 -37.04zm-279.13 -108.48c42.77,-48.32 35.41,-60.87 92.72,-85.12 17.63,-7.46 102.78,-56.4 91.16,-77.26 -19.88,-35.71 -17.19,-27.43 -17.19,-73.78 0,-32.42 4.17,-113.22 -23.82,-130.63 -35.39,-22.01 -6.27,23.92 -58.77,22.83 -12.76,-0.27 -75.03,10.35 -44.94,32.09 64.85,46.87 6.04,67.59 -20.64,118.38 -16.3,31.03 -27.03,58.14 -47.63,87.2 -20.77,29.31 4.23,19.9 -46.3,67.81 -15.67,14.85 -52.69,22.21 -33.41,51.82 6.68,10.27 40,-2.76 59.87,-2.76l48.95 -10.58zm367.77 -459.06c14.13,-38.41 19.99,-60.45 -4.31,-92.71 -5.52,-7.33 -35.21,8.98 -49.25,12.89 -78.72,21.93 -48.27,38.5 -65.16,107.27 -8.74,35.58 25.96,59.72 62.63,31.75 9.89,-7.55 24.18,-11.66 25.66,-12.89l30.43 -46.31zm-89.96 171.98c-13.2,-13.79 -36.39,-43.52 -62.18,-31.29 -13.25,6.28 -10.38,44.69 6.73,56.09 19.94,13.28 40.57,69.41 63.73,8.28 1.28,-3.38 2.14,-8.92 -0.34,-11.91l-7.94 -21.17zm160.08 -37.04c-0.42,-31.52 -0.09,-78.54 -41.01,-43.77 -20.19,17.16 -52.4,106.43 -2.99,84.44 5.16,-2.3 21.75,-15.57 25.48,-16.86l18.52 -23.81zm97.89 -145.52c17.8,-13.24 47.89,-35.2 48.95,-62.18 0.38,-9.58 -22.19,7.37 -39.69,6.62 -31.72,-1.35 -107.78,19.12 -105.83,64.82 1.18,27.61 -35.78,57.18 17.2,34.28 17.8,-7.69 36.49,-13.15 56.88,-21.05l22.49 -22.49zm342.64 -161.69c4.8,54.73 4.36,24.54 12.89,45.27 9.63,23.42 -49.94,28.59 -68.45,16.22 -40.7,-27.2 -84.9,33.97 -116.42,32.73 -4.12,-0.16 -52.73,50.07 -70.12,60.74 -47.18,28.97 -79.09,73.28 -99.33,124.24 -26.83,67.59 104.65,-41.35 108.37,-43.77 19.5,-12.69 74.38,-55.08 96,-50.27 17.16,3.81 29.1,-5.75 61.77,1.33 45.62,9.88 91.76,-100.31 134.37,-36.93 24.94,37.09 44.44,19.94 80.96,-2.76 64.26,-39.95 53.63,8.86 139.78,-34.85 50.05,-25.4 31.76,-26.39 93.66,-33.6 10.7,-1.24 28.98,-11.16 35.3,-11.91l84.67 -66.44 -493.45 0zm9387.1 2733.76c-25.5,-60.91 -21.4,-70 1.66,-127.34 5.13,-12.77 53.99,-41.5 72.65,-36.36 25.51,7.03 64.45,-42.99 123.26,-37.49 28.77,2.68 -16.55,41.33 63.91,44.97 38.9,1.76 111.58,52.96 76.43,59.99 -70.74,14.15 -112.36,-16.67 -136.49,-15.01 -39.88,2.74 33.5,76.25 11.57,117.4 -8.1,15.2 -31.67,76.37 -43.66,80.81 -28.98,10.74 -28.33,-61.14 -42.67,-41.99 -7.74,10.34 -34.94,36.74 -49.82,23.93 -12.07,-10.39 -37.54,-14.95 -51.71,-21.28l-25.13 -47.63zm-744.81 -1439.34c-32.72,-23.07 -33.3,-25.56 -44.64,-58.44 -8.36,-24.24 71.43,-47.22 79.37,-36.81 12.61,16.52 61.61,53.7 28.32,79.6 -11.57,8.99 -23.6,10.06 -36.59,14.32l-26.46 1.33zm-2409.7 3960.15c-22.65,-72.52 -1.81,-71.09 -12.78,-112.56 -6.35,-24.02 7,-41.55 20.38,-63.58 33.26,-54.75 31.47,17.24 34.39,42.22 3.27,27.99 11.8,92.07 0.68,118.05 -2.06,4.8 1.36,18.63 -10.58,38.48 -12.08,20.09 -40.9,122.83 -70.46,119.06 -17.57,-2.24 18.52,-68.13 18.52,-92.72l19.85 -48.95zm220.93 874.46c-4.48,-16.29 -25.09,-94.88 -16.45,-114.87 8.95,-20.69 26.66,-30.55 38.07,-66.6 5.96,-18.86 35.26,-83.76 35.26,-19.73 0,30.4 4.39,29.04 28.77,45.2 21.31,14.13 20.96,-40.87 62.74,-57.33 25.66,-10.11 45.34,-12.75 67.24,8.27 21.02,20.18 -4.53,48.44 -27.55,55.8 -23.41,7.48 -62.14,38.18 -69.25,64.82 -3.89,14.6 -58.27,93.01 -4.08,72.42 39.95,-15.19 94.2,-69.6 124.36,-68.68 26.49,0.81 11.58,51.5 20.63,79.83 11.4,35.68 -22.42,41.41 -49.29,77.48 -19.26,25.87 -37.69,69.25 -76.38,41.92 -24.88,-17.57 -21.94,-3.44 -56.25,0.64 -43.53,5.18 -46.56,-27.07 -61.95,-46.41l-15.87 -72.76zm754.06 -96.58c-41.4,-11.48 -39.86,-11.76 -44.63,-45.51 -3.94,-27.89 0.19,-67.27 32.05,-73.89 47.72,-9.92 29.96,37.33 114.68,51.59 19.79,3.33 51.31,19.4 58.96,40.03 5.09,13.72 -77.61,46.35 -98.2,43.32 -4.23,-0.62 -8.49,-1.11 -12.58,-2.31l-50.28 -13.23zm-1680.75 5638.93c-18.82,-17.72 -35.58,-29.14 -22.94,-55.56 13.11,-27.42 61.08,-7.97 98.12,-27.9 17.99,-9.67 36.69,-6.92 41.69,16.18 9.88,45.59 23.87,30.75 63.05,51.07 69.38,35.97 62.51,-113.03 32.21,-133.28 -49.53,-33.1 7.19,-44.58 -46.65,-95.25 -16.06,-15.12 -17.68,-2.75 -15.88,-38.37 2.26,-44.64 -6.12,-38.94 -29.55,-68.79 -10.15,-12.94 -21.46,12.71 -44.98,-22.49 -8.31,-12.44 -56.61,-35.34 -73.63,-45.32 -36.97,-21.68 -44.29,8.36 -72.76,-19.5 -24.92,-24.38 -107.72,3.64 -45.96,43.54 72.12,46.61 -38.11,40.74 -4.43,131.88 14.7,39.76 -4.75,109.16 -57.75,19.05 -4.32,-7.34 -31.96,-24.7 -44,-12.02 -52.02,54.77 -70.62,-22.5 -113.02,61.31 -30.56,60.43 -60.83,64.92 7.3,121.37 33.65,27.88 80.2,12.24 92.04,92.49 6.43,43.53 20.64,63.73 67.81,63.84 50.6,0.11 62.93,11.35 109.91,29.33 56.92,21.78 28.1,5.24 78.62,9.15 50.58,3.91 55.9,-2.19 79.04,39.46 25.24,45.4 121.99,10.02 76.84,-37.5 -17.78,-18.72 -35.76,-36.86 -53.37,-55.22l-121.71 -67.47zm445.83 119.06c-88.12,-24.89 -44.5,-4.76 -114.98,34.17 -63.48,35.07 -48.4,68.77 11.49,32.96 38.4,-22.95 79.14,28.42 111.66,-19.39 3.01,-4.42 15.63,-20.69 7.7,-25.25l-15.87 -22.49zm194.47 -301.62c-29.14,-28.2 -28.38,-31.57 -35.38,-64.94 -7.25,-34.56 47.3,-45.55 62.29,-3.86 15.33,42.64 34.37,37.13 -7.82,69.78 -3.29,2.54 -4.21,3.32 -5.86,6.95l-13.23 -7.93zm412.75 -530.5c-1.04,-4.88 -34.02,-166.38 6.96,-142.87 45.88,26.32 37.52,6.05 60.96,67.24 7.65,19.98 83.65,55.9 54.32,106.29 -18.56,31.88 -27.88,29.14 -65.35,35.49 -16.52,2.8 -26.94,-15.34 -34.4,-23.81l-22.49 -42.34zm230.19 738.2c-31.55,-45.73 -24.87,-47.47 -11.45,-89.62 2.45,-7.71 24.98,-55.41 29.97,-56.02 21.26,-2.64 33.88,73.91 51.6,87.77 33.46,26.16 -3.4,74.15 -35.72,71.1l-34.4 -13.23zm199.76 -44.98c-29.28,0.78 -46.48,7.98 -36.17,-21.51 11.53,-33 25.38,-31.29 28.13,-77.37 1.68,-28.21 29.88,-55.67 55.67,-30.88 17.8,17.1 34.38,0.31 21.51,50.84 -8.6,33.76 -8.31,37.63 -34.4,65.23l-2.99 4.43 -31.75 9.26zm224.9 -25.14c-29.27,-10.98 -54.24,-17.46 -44.64,-52.58 14.68,-53.72 71.92,-53.04 87.31,4.62 5.35,20.03 0.56,36.97 -21.5,43.99l-21.17 3.97zm-530.49 -70.11c-51.23,-9.47 -59.57,-20.05 -93.06,-52.47 -38.39,-37.16 18.02,-36.33 49.51,-49.51 37.51,-15.7 79.71,12.63 101.42,41.46 12.91,17.15 -21.21,40.93 -30.09,47.29l-27.78 13.23zm610.53 2162.3c-42.85,-28.7 -36.91,-27.02 -64.94,-59.87 -23.87,-27.97 9.37,-17.69 35.49,-24.45 48.32,-12.51 71.68,41.83 155.58,-0.34 57.81,-29.06 99.82,17.55 146.39,-73.55 5.04,-9.86 28.78,-44.38 40.9,-48.16 36.6,-11.44 107.9,-139.65 124.01,-94.27 12.98,36.52 20.54,65.13 59,79.26 23.36,8.59 83.31,41.06 103.39,55.68 4.83,3.52 70.83,55.07 71.01,55.38 17.27,28.98 5.77,32.49 41.01,55.1 28.55,18.31 34.05,43.41 28.01,73.97 -7.9,39.97 47.55,53.32 -46.75,67.7 -76.16,11.6 -27.51,-15.01 -72.99,43.99 -29.72,38.56 -37.49,-1.36 -94.8,1.75 -17.11,0.93 -59.27,41.26 -66.14,62.17 -19.07,58.05 4.64,53.75 -44.76,106.82 -26.32,28.28 -56.17,38.09 -95.7,31.97 -45.36,-7.01 -30.88,-104.16 -39.69,-137.69 -10.26,-39.04 -9.88,-88.6 -33.94,-122.69 -19.49,-27.62 -9.08,-49.42 -62.52,-52.81 -18.2,-1.15 -52.64,0.71 -74.08,1.21l-108.48 -21.17zm850.64 -145.52c-15.68,-30.82 -24.78,-52.42 1.32,-75.52 9.01,-7.97 41.95,-1.93 61.84,-6.95 28.56,-7.22 38.35,11.47 62.06,9.6 34.18,-2.7 55.01,26.16 32.21,42.45 -27.93,19.94 -38.53,25.01 -64.83,48.6 -18.6,16.69 -50.3,22.38 -73.32,12.59 -2.17,-0.92 -6.34,-2.32 -8.7,-2.99l-10.58 -27.78zm31.75 705.12c-36.79,-38.7 -26.21,-24.61 -63.5,-40.56 -18.1,-7.74 18.15,-55.94 10.24,-86.1 -4.66,-17.76 -3.81,-77.47 33.75,-66.15 37.1,11.18 18.18,1.54 55.23,21.28 28.73,15.31 97.89,-14.92 97.89,75.3 0,46.56 51.21,95.74 39.46,116.19 -5.64,9.83 -33.84,-9.89 -59.75,27.33 -15.31,21.98 -66.39,-1.95 -82.89,-14.21l-30.43 -33.08zm-628.39 505.36c18.57,-3.55 20.07,-4.01 37.91,2.99 49.58,19.45 42.89,1.96 82.48,-7.41 40.37,-9.56 114.02,30.78 103.64,-24.57 -12.47,-66.42 70.91,-35.61 118.38,-63.16 22.61,-13.13 55.66,-53.96 63.39,-79.49 7.24,-23.91 63.97,-54.24 87.31,-57.68 41.6,-6.13 76.62,-44.4 75.75,-87.62 -0.7,-34.57 62.21,-55.08 89.96,-54.8 75.9,0.77 -18.09,-53.78 -30.89,-57.23 -61.15,-16.48 -30.08,-32.44 -68.87,-55.75 -46.7,-28.07 -115.91,-71.29 -152.47,-110.14 -28.58,-30.38 -83.78,-21.42 -120.31,-14.78 -47,8.53 -73.97,101.83 -167.74,5.86 -33.29,-34.07 -63.61,-4.68 -89.89,23.36 -69.95,74.62 -66.34,36.42 -105.49,57.86 -24.85,13.61 -61.92,7.07 -64.82,49.94 -9.68,142.74 -68.28,-20.35 -101.87,29.78 -4.47,6.67 -35.59,97.4 -38.25,104.17 -2.44,6.7 -14.62,45.6 -33.08,36.81 -10.52,-5.01 -7.02,-49.02 -45.09,-70.98 -24.44,-14.1 -64.8,-67.78 -99.86,-28.35 -38.6,43.41 52.35,51.13 52.35,133.17 0,96.69 -7.33,94.59 -70.99,164.38 -44.51,48.79 28.98,60.03 54.81,72.35 27.4,13.06 49.06,32.53 57.64,61.38 13.95,46.87 61.11,44.31 98.65,62.51 24.7,11.98 39,11.54 41.24,44.98l-0.11 2.65c-15.1,46.46 -4.8,44.29 -13.68,80.7 -7.43,30.43 -35.98,-24.08 -43.1,47.62 -2.72,27.42 -43.16,6 -71.66,68.15 -13.81,30.12 14.27,29.24 -10.13,63.24 -15.45,21.54 -32.91,92.22 25.71,80.73 31.86,-6.24 44.82,0.21 67.42,-27.55 21,-25.78 89.11,-26.34 59.54,-103.9 -29.07,-76.23 47.03,-72.08 57,-170.06 3.45,-33.9 4.7,-39.17 -3.29,-71.78 -4.91,-20.06 36.58,-38.76 52.46,-54.46 2.43,-2.4 36.29,-19.83 49.06,-30.43l56.89 -22.49zm1273.31 184.55c-1,-24.76 -2.74,-67.64 32.85,-51.94 21.81,9.62 41.87,35.68 28.35,55.91 -18.17,27.2 -20.62,47.19 -57.23,10.58l-3.97 -14.55zm-4395.4 1216.43l6.61 -11.8c54.6,-80.75 75.33,-47.04 111.88,-73.74 30.99,-22.63 -15.16,-48.53 -35.37,-55.79 -84.68,-30.44 -73.67,-121.33 -53.03,-192.47 18.8,-64.82 -19.72,-69.12 -13.98,-116.34 9.16,-75.44 58.45,-127.3 108.47,-179.01 45.22,-46.74 31.18,-71.03 82.33,-112.68 25.81,-21.02 73.8,-14.53 39.15,-45.65 -30.72,-27.6 -14.72,-67.05 45.09,-33.72 39.36,21.93 78.7,-43.4 66.15,-68.91 -28.28,-57.52 105.27,-87.45 100.32,-103.07 -7.58,-23.91 -66.36,-3.76 -81.61,0.87 -54.09,16.41 -33.61,-18.03 -52.23,-12.78 -40.04,11.29 -30.43,50.98 -57.76,80.36 -51.38,55.24 -97.32,64.82 -168.12,64.82 -58.21,0 -59.21,85.68 -100.55,6.62 -42.05,-80.42 -96.63,46.87 -139.89,76.39 -57.33,39.13 -133.59,96.03 -162.6,160.6 -24.13,53.69 -45.12,91.83 -73.1,142.8 -19.45,35.43 -28.18,38.36 -47.86,66.15 -31.81,44.95 -59.11,52.24 -89.43,89.09 -42.03,51.08 -24.07,122.08 2.23,176.7 13.28,51.01 41.31,185.81 -1.66,231.06 -33.26,35.03 -13.79,68.69 6.96,102.66 38.75,63.45 -1.55,111.81 36.7,201.73 17.71,41.62 131.74,-39.95 77.71,74.76 -15.47,32.85 -58.95,4.38 -81.79,75.41 -9.36,29.09 40.25,15.37 -2.88,63.84 -16.14,18.15 -48.29,116.71 6.66,66.11 50.56,-46.57 98.08,-0.08 130.4,-79.79 10.93,-26.97 -38.11,-29.26 -9.6,-93.41 7.15,-16.1 35.68,-106.57 43.24,-112.33 69.08,-52.6 42.18,-56.56 84.85,-117.4 36.62,-52.18 184.41,-86.25 185.78,-122.92 1.01,-26.93 -24.05,-60.95 11.79,-82.02l25.14 -66.14zm-1690.02 990.21c9.9,-21.17 19.89,-45.3 19.95,-69.14 0.21,-80.27 108.01,-133.29 84.22,-215.18 -28.6,-98.44 49.75,-104.62 63.5,-196.02 5,-33.24 24.89,-76.76 36.51,-109.8 16.78,-47.7 52.51,-86.27 56.09,-130.75 3.1,-38.49 4.69,-67.82 14.9,-106.05 10.82,-40.55 2.04,-62.98 11.9,-99.45 2.47,-9.14 35.1,-72.58 18.41,-68.22 -33.65,8.78 -102.49,45.44 -101.75,85.53 0.67,36.51 1.87,22.7 -9.15,58.09 -15.54,49.91 -49.06,73.8 -49.06,124.24 0,64.86 -47.57,105.6 -63.16,164.5 -8.98,33.95 -31.36,90.72 -53.14,117.82 -45.28,56.32 -34.96,105.12 -65.28,159.01 -30.69,54.54 -29.38,38.17 -66.9,74.73 -30.81,30.02 -38.39,37.33 -42.56,83.69 -18.52,61.74 -44.97,93.61 -62.52,160.41 -26.93,102.49 8.04,99.96 -60.63,197.76 -27.5,39.16 -45.12,117.66 -38.59,165.17 9,65.44 -9.21,75.24 17.88,152.1 21.68,61.5 -9.15,132.55 7.26,192.39 3.26,11.89 6.72,40.92 25.93,22.27 15.49,-15.04 38.73,-130.86 58.21,-168.81 10.21,-19.89 25.12,-74.97 36.92,-103.41 30.67,-73.89 35.28,-75.16 48.16,-155.84 8.7,-54.54 48.86,-125.48 62.29,-186.54 4.07,-18.51 15.37,-68.54 21.5,-83.68l29.11 -64.82zm-1642.41 2495.68c-43.72,-10.91 -52.85,-18.79 -79.49,-48.95 -9.61,-10.88 -16.28,-42.39 -14.44,-55.9 5.86,-43.09 36.35,-64.86 27.44,-96.58 -7.62,-27.1 18.86,-83.8 21.51,-115.62 0.7,-8.41 18.91,-44.58 25.14,-21.73 2.31,8.46 46.42,67.04 52.57,71.55 26.97,19.73 107.06,57.19 141.78,63.5 27.34,4.97 59.81,36.78 79.6,54.46 18.46,16.49 52.66,9.8 42.57,71.22 -6.68,40.63 -5.88,46.01 -18.41,86.74 -13.7,44.48 -7.08,78.91 -63.84,90.19 -12.03,2.39 -57.5,-11.55 -68.91,-26.69 -9.44,-12.53 -25.83,-10.39 -47.17,-36.59 -3.26,-4.01 -31.73,-16.36 -38.82,-21.05l-59.53 -14.55zm-2159.02 201.08c-24.66,43.18 -36.5,55.48 -79.37,31.98 -57.63,-31.59 39.24,-105.76 70.11,-114.98 8.14,-2.43 2.23,-29.02 7.6,-46.87 2.87,-9.53 33.78,-107.64 49.63,-62.59 17.59,49.98 71.78,13.13 134.26,48.72 26.83,15.28 11.12,18.74 56.24,36.47 64.1,25.19 -24.71,43.9 -65.16,26.12 -30.42,-13.38 -94.12,26.06 -117.74,30.88l-55.57 50.27zm-1207.83 -367.77c6.59,-10.19 9.59,-26.18 6.28,-38.25 -13.16,-48 10.1,-53.15 -14.55,-77.18 -22.5,-21.94 7.73,-84.92 21.62,-94.69 8.97,-6.32 -21.13,-38.1 -23.59,-40.03 -15.46,-12.16 -17.72,-30.11 -25.7,-35.72 -43.97,-30.83 7.1,-32.62 -40.79,-80.58 -81.79,-81.91 -0.3,-105.9 -29.1,-146.85 -8.79,-12.5 -29.21,-102.51 -52.58,-87.42 -37.51,24.22 -6.06,146.01 -23.92,156.33 -1.35,0.78 -102.6,11.28 -103.94,10.92 -25.17,-6.63 16.66,-116.91 -22.42,-135.16 -53.82,-25.14 -12.44,-56.9 -73.52,-66.83 -60.54,-9.84 -37.33,-40.62 -78.73,-34.92 -59.63,8.21 -57.28,-12.42 -110.22,28.76 -39.19,30.49 -93.31,30.51 -120.5,75.98 -15.05,25.16 -69.42,55.06 -97.03,54.99 -81.19,-0.22 -73.46,-60.68 -90.19,-43.43 -35.01,36.1 -18.6,97.19 -4.83,137.36 16.88,37.27 22.91,56.23 45.62,85.65 21.98,28.47 -15.08,61.07 17.54,96.46 26.62,28.89 22.98,81.31 51.48,114.98 34.04,40.21 16.57,25.77 62.52,52.05 17.05,9.75 46,46.45 75.93,62.17 80.39,42.22 7.49,88.75 99.49,88.75 95.86,0 52.85,53.2 131.27,59.54 41.8,3.38 85.33,43.25 131.08,44.87 54.87,1.93 52.09,82.8 106.52,59.75 25.55,-10.82 59.06,-83.23 91.28,-98.88 41.53,-20.16 19.63,-54.23 36.7,-85.46 3.45,-6.31 6.73,-20 6.5,-27.44l27.78 -35.72zm-427.3 431.27c-4.95,-6.54 -66.47,-92.92 -49.93,-109.46 12.78,-12.78 68.9,66.95 102.85,69.67 51.01,4.08 36.82,29.37 72.64,57.22 14.81,11.51 14.76,39.36 -6.61,46.07 -20.72,6.5 -75.3,-0.88 -75.3,-29.1l-43.65 -34.4zm423.33 -27.78c-13.41,63.19 -9.51,91.18 -36.17,148.06 -16.06,34.27 -28.73,54.39 -67.01,68.56 -25.5,9.44 -8.57,-66.02 -4.09,-78.05 29.25,-78.39 19.54,-46.69 8.4,-128.66 -12.06,-88.75 46.89,-86.73 82.89,-145.83 23.56,-38.68 7.92,-28.86 22.03,-68.04 7.92,-21.96 64.4,-147.34 78.28,-160.83 43.32,-42.08 -9.4,112.55 -11.22,119.3 -12.57,46.52 -30.13,87.14 -46.76,132.59 -3.08,8.42 -3.75,27.61 -6.5,36.17l-19.85 76.73zm318.83 228.87c-18.51,-4.98 -168.24,-43.63 -122.05,-86.97 93.24,-87.49 -26.43,-135.81 72.12,-195.16 56.2,-33.84 99.38,4.6 125.11,54.47 22.72,44.04 108.8,10.93 149.94,46.64 19.58,17 63.55,36.01 88.19,23.48 12.6,-6.42 58.11,-33.95 66.71,-31.3 47.79,14.74 82.04,-10.8 88.75,-59.46 9.62,-69.71 49.78,-84.53 100.43,-35.79 16.91,16.27 10.26,29.02 39.01,18.18 41.35,-15.59 71.71,-2.14 97.37,30.54 17.48,22.27 98.77,59.11 93.47,73.97 -0.09,0.25 -31.7,45.75 -36.93,54.88 -21.25,37.09 -81.06,145.02 -88.41,183.89 -3.71,19.61 -22.82,134.06 -41.35,138.27 -28.43,6.46 -35.11,-68.05 -36.59,-83.01 -2.16,-21.93 -49.81,-160.46 -59,-98.35 -11,74.35 -57.16,61.76 -116.83,58.32 -86.06,-4.96 -76.51,59.41 -162.95,62.29 -56.13,1.88 -43.88,17.22 -89.21,-24.15 -12.66,-11.56 -33.76,-21.53 -53.78,-39.57 -10.48,-9.45 -36.15,-31.07 -47.85,-36.93l-66.15 -54.24zm1191.96 -1479.03l-1.33 -9.83c-2.86,-54.92 -12.94,-120.91 -24.68,-174.97 -13.48,-62.13 -30.61,-61.63 -32.2,-134.83 -1.91,-87.88 67.43,-117.66 0,-188.49 -44.47,-46.7 -82.73,-69.23 -110.79,-133.16 -18.09,-41.22 -49.46,-22.66 -81.95,-5.07 -32.04,17.36 -32.99,24.11 -59.42,43.43 -38.04,27.81 -42.47,35.74 -90.48,61.84 -17.92,16.44 -39.3,31.69 -56.13,48.08 -29.91,29.13 -62.04,91.34 -99.07,92.26 -74.3,1.86 -62.25,106.59 30.16,68.57 38.76,-15.95 59.46,155.13 62.52,175.49 3.61,23.99 32.13,67.78 25.59,77.19 -13.17,18.94 -42.46,-61.9 -44.52,-67.25 -5.43,-14.06 -52.49,-98.98 -68.04,-77.93 -27.84,37.69 51.96,136.63 -19.09,153 -41.24,9.51 -7.48,80.2 53.14,88.87 118.91,17.01 53.59,64 29.45,60.1 -43.7,-7.08 -45.12,-8.7 -60.86,-43.13 -12.5,-27.36 -25.44,-20.33 -40.78,-22.61 -31.49,-4.67 -53.8,1.91 -71.78,31.87 -10.98,18.3 -32.61,-17.02 -36.81,-27.44 -18.22,-45.2 -24.8,-93.3 -79.95,-98.01 -32.66,-2.79 0.9,-61.93 11.04,-75.07 31.8,-41.19 -39.14,-35.89 2.72,-101.94 71.75,-113.21 -31.12,-62.71 -73.47,-70.72 -41.3,-7.81 -88.19,2.15 -118.54,-12.89 -41.56,-20.59 -37.72,-15.67 -79.37,-26.46 -66.58,-17.25 -6.84,27.08 20.29,35.49 45.36,14.06 38.14,22.11 63.16,32.09 50.1,19.98 35.46,26.05 34.29,70.65 -0.8,30.21 -53.07,77.37 -79.91,86.78 -89.04,31.22 -84.97,102.42 -119.97,114.53 -21.25,7.35 -76.68,-17.88 -140.34,20.3 -60.65,36.37 -146.51,-47.96 -119.18,2.19 16.63,30.51 31.3,60.75 64.6,67.58 90.94,18.66 -3.91,64 20.86,87.99 33.92,32.86 23.22,16.03 59.19,63.17 -0.5,2.96 -14.86,81.55 -7.07,90.29 41.43,46.49 45.37,53.39 48.19,116.65 0.82,18.22 -8.76,74.75 -16.97,90.6 -57.84,111.6 55.6,59.43 39.81,141.9 -7.87,41.06 -0.51,78.1 21.92,114.29 9.53,15.38 43.27,17.14 61.31,11.15 34.46,-11.43 90.38,-23.47 120.16,2.76 47.88,42.19 101.45,-4 150.13,50.05 52.51,58.29 82.82,13.02 92.19,106.36 10.86,108.2 48.28,58.86 92.72,121.29 21.55,30.28 67.7,19.72 97.52,42.86 44.06,34.21 85.95,7.75 129.68,-0.52 23.64,-4.47 7.82,-58.38 1.32,-72.65 -24.11,-52.99 25.66,-63.61 14.44,-98.12 -4.35,-13.37 -90.69,-27.66 -67.36,-81.68 9.5,-21.98 78.36,-42.57 101.76,-62.07 72.89,-60.72 59.69,-21.87 127.76,-55.1 53.47,-26.12 121.02,-105.38 61.19,-156.91 -22.03,-18.96 -68.37,-37.99 -94.15,-63.16 -36.61,-35.73 -49.43,-57.54 -51.15,-111.46 15.47,-44.59 28.69,-79.71 53.45,-119.37 41.71,-66.81 61.38,-104.64 147.11,-60.32 33.84,17.49 66.21,52.19 105.84,49.93 30.1,-1.73 81.96,17.02 106.13,33.83 18.11,12.59 24.48,18.46 49.97,10.92 37.47,-11.08 69.04,-45.4 33.6,-78.05 -32.23,-29.69 -18.6,-12.66 -47.51,-29.11 -39.43,-22.44 -44.53,-43.82 -77.94,-71.21 -7.58,-6.21 -40.51,-53.54 -47.85,-64.71l-14.55 -70.11zm546.36 2156.37c-30.58,-17.08 -100.6,-65.63 -98,-108.03 2.54,-41.42 137.39,-80.91 81.26,-106.52 -38.12,-17.39 -28.84,-49 -23.28,-81.45 7.3,-42.7 -19.34,-51.19 21.16,-58.55 21.57,-3.92 25.98,-29.98 44.98,-39.69 54.3,-27.73 27.32,35.9 93.74,57.68 48.83,16.02 35.94,73.26 74.04,111.66 0.16,0.16 31.53,16.02 22.61,-11.04 -7.91,-23.97 22.27,-16.27 21.62,-69.74 -0.3,-24.62 2.67,-36.99 1.21,-66.52 -3.77,-76.05 81.42,-100.86 50.39,-3.17 -11.14,35.06 -32.33,127.87 13,149.26 22.31,10.53 59.09,62.55 76.61,83.34 66.39,78.79 -79.52,22.26 -86.1,22.38 -43.3,0.76 -149.84,46.21 -134.48,102.85 5.92,21.86 21.63,69.08 -11.57,78.05 -11.83,3.2 -64.78,-6.46 -72.01,-12.77 -4.95,-4.33 -15.18,-14.32 -19.61,-17.32l-55.57 -30.42zm115.1 -521.24c-27.61,51.83 -26.9,30.1 -51.26,62.07 -47.04,61.73 -82.76,-2.62 -42.67,-56.77 13.99,-18.9 -18.92,-12.65 37.69,-56.55 46.41,-35.99 15.65,-25.95 70.79,-28.12 15.25,-0.6 -1.05,41.97 -6.5,50.61 -0.96,1.52 -3.04,4.87 -4.08,6.27l-3.97 22.49zm-2389.86 -1694c-32.44,-37.09 -34.56,-41.82 -15.2,-77.41 10.17,-18.69 23.88,-25.92 24.35,-55.98 0.91,-58.55 78.95,-55.41 74.3,11.68 -2.6,37.52 -8.23,33.98 2.2,73.22 5.29,19.91 -15.71,41.01 -37.38,46.3 -8.59,2.1 -19.72,5.27 -28.43,4.84l-19.84 -2.65zm352.55 -2224.49c-32.16,-18.9 -39.99,-20.03 -41.01,-53.37 -0.91,-29.85 46.17,-67.11 76.73,-70.88 5.81,-0.71 53.45,-14.09 59.42,-17.31 34.6,-18.68 88.94,-26.86 37.49,27.33 -42.83,45.13 -10.44,133.79 -90.6,121.18l-6.31 -0.34 -35.72 -6.61zm-69.45 -2952.11c-9.59,-27.23 -29.79,-81.25 22.49,-70.11 11.94,2.54 27.76,54.82 42.45,72.76 36.8,44.93 -34.79,60.98 -52.05,42.67 -2.42,-2.57 -6.78,-6.16 -7.59,-10.92l-5.3 -34.4zm14952.29 -2011.51c-29.93,-23.99 -46.02,-39.43 -41.12,-79.26 2.92,-23.76 54.16,-27.17 65.91,2.19 3.75,9.37 67.07,51.4 59,66.49 -10.85,20.32 -53.23,24.33 -67.92,18.52l-15.87 -7.94zm-123.04 -79.37c-1.7,-2.77 -49.85,-67.73 -37.04,-78.17 20.97,-17.09 42.92,4.65 53.26,21.28 13.17,21.17 69.29,62.12 8.92,86.97 -4.79,1.97 -6.77,-2.97 -10.58,-3.63l-14.56 -26.45zm-8333.71 1729.71c-37.08,2.7 -42.97,7.02 -52.58,-24.16 -8.64,-28.03 -5.12,-37.27 -21.5,-70.98 -38.13,-78.46 40.45,-97.81 51.59,-54.35 8.79,34.28 57.7,58.26 81.04,96.57 14.49,23.78 10.25,24.39 -12.25,38.36l-46.3 14.56zm-115.1 399.52c-12.04,31.36 -21.22,68.1 -60.85,64.93 -22.63,-1.81 -6.5,-42.34 1.32,-53.48 22.41,-31.93 36.34,-105.04 58.21,-114.64 12.36,-5.43 44.24,31.42 12.36,67.81 -1.64,1.88 -1.07,0.89 -1.77,3.63l-9.27 31.75zm-202.4 243.42c-16.36,14.78 -69.41,68.76 -67.58,12.02 0.41,-12.93 51.39,-72.88 63.61,-72.88 48.76,0 89.86,-66.73 102.85,-48.6 8.06,11.25 -44.9,74.99 -52.58,85.65l-46.3 23.81z"/>
  <use x="2011.07" y="6742.79" width="105.38" height="105.38" xlink:href="#villes"/>
  <use x="2303.81" y="12998.02" width="105.38" height="105.38" xlink:href="#villes"/>
  <use x="3332.66" y="16630.29" width="105.38" height="105.38" xlink:href="#villes"/>
  <use x="3844.63" y="19662.43" width="105.38" height="105.38" xlink:href="#villes"/>
  <use x="2042.82" y="20130.73" width="105.38" height="105.38" xlink:href="#villes"/>
  <use x="5522.09" y="22974.99" width="105.38" height="105.38" xlink:href="#villes"/>
  <use x="8989.46" y="21608.41" width="105.38" height="105.38" xlink:href="#villes"/>
  <use x="14570.85" y="21175.82" width="105.38" height="105.38" xlink:href="#villes"/>
  <use x="16528.76" y="22345.28" width="105.38" height="105.38" xlink:href="#villes"/>
  <use x="13628.06" y="17665.09" width="105.38" height="105.38" xlink:href="#villes"/>
  <use x="14232.17" y="13735.73" width="105.38" height="105.38" xlink:href="#villes"/>
  <use x="18804" y="12888.74" width="105.38" height="105.38" xlink:href="#villes"/>
  <use x="14351.97" y="12452.85" width="105.38" height="105.38" xlink:href="#villes"/>
  <use x="11998.26" y="12184.29" width="105.38" height="105.38" xlink:href="#villes"/>
  <use x="13324.65" y="10229.99" width="105.38" height="105.38" xlink:href="#villes"/>
  <use x="10398.51" y="6104.08" width="105.38" height="105.38" xlink:href="#villes"/>
  <use x="14830.15" y="3702.7" width="105.38" height="105.38" xlink:href="#villes"/>
  <use x="8513.2" y="14022.77" width="105.38" height="105.38" xlink:href="#villes"/>
  <use x="8122.94" y="13124.5" width="105.38" height="105.38" xlink:href="#villes"/>
  <use x="4245.92" y="19990.77" width="105.38" height="105.38" xlink:href="#villes"/>
  <use x="1645.94" y="21744.64" width="105.38" height="105.38" xlink:href="#villes"/>
  <use x="10520.09" y="21146.68" width="105.38" height="105.38" xlink:href="#villes"/>
  <use x="3472.9" y="21931.16" width="105.38" height="105.38" xlink:href="#villes"/>
  <use x="1687.1" y="22789.67" width="105.38" height="105.38" xlink:href="#villes"/>
  <path class="fil3 str1" d="M15634.18 23181.53l3770.2 0 0 1592.9 -3770.2 0 0 -1592.9z"/>
  <path class="fil4" d="M17614.86 23541.13l-16.34 45.39 -137.82 0 0 -6.47c40.57,-36.98 69.08,-67.14 85.61,-90.54 16.52,-23.41 24.81,-44.81 24.81,-64.21 0,-14.82 -4.53,-26.99 -13.64,-36.51 -9.06,-9.53 -19.88,-14.29 -32.52,-14.29 -11.52,0 -21.81,3.29 -30.92,9.94 -9.18,6.64 -15.88,16.4 -20.29,29.22l-6.35 0c2.88,-21.11 10.29,-37.34 22.17,-48.69 11.87,-11.28 26.75,-16.93 44.62,-16.93 18.94,0 34.81,6.12 47.51,18.29 12.7,12.17 19.05,26.51 19.05,43.09 0,11.82 -2.76,23.7 -8.29,35.52 -8.47,18.58 -22.28,38.27 -41.33,59.09 -28.64,31.16 -46.28,49.86 -53.04,56.03l60.39 0c12.29,0 20.93,-0.47 25.87,-1.35 4.94,-0.94 9.41,-2.82 13.4,-5.65 4,-2.76 7.47,-6.76 10.41,-11.93l6.7 0z"/>
  <path id="1" class="fil4" d="M17642.38 23470.93c0,-26.64 4,-49.51 12.05,-68.74 8.06,-19.22 18.7,-33.57 32.05,-42.98 10.29,-7.47 20.99,-11.17 31.98,-11.17 17.94,0 33.99,9.11 48.22,27.34 17.81,22.64 26.69,53.27 26.69,91.96 0,27.05 -3.88,50.09 -11.7,69.03 -7.82,18.93 -17.76,32.63 -29.87,41.21 -12.11,8.53 -23.81,12.82 -35.04,12.82 -22.29,0 -40.81,-13.11 -55.62,-39.39 -12.53,-22.17 -18.76,-48.86 -18.76,-80.08zm33.87 4.23c0,32.1 3.94,58.33 11.82,78.67 6.52,17.11 16.28,25.63 29.22,25.63 6.17,0 12.58,-2.76 19.22,-8.34 6.65,-5.59 11.65,-14.88 15.11,-27.99 5.24,-19.7 7.88,-47.57 7.88,-83.43 0,-26.64 -2.76,-48.86 -8.23,-66.62 -4.11,-13.23 -9.46,-22.58 -15.99,-28.05 -4.65,-3.82 -10.35,-5.7 -16.99,-5.7 -7.76,0 -14.7,3.53 -20.76,10.52 -8.23,9.53 -13.87,24.46 -16.81,44.92 -3,20.41 -4.47,40.52 -4.47,60.39z"/>
  <path id="2" class="fil4" d="M17818.77 23470.93c0,-26.64 4,-49.51 12.05,-68.74 8.06,-19.22 18.7,-33.57 32.05,-42.98 10.29,-7.47 20.99,-11.17 31.98,-11.17 17.94,0 33.99,9.11 48.22,27.34 17.81,22.64 26.69,53.27 26.69,91.96 0,27.05 -3.88,50.09 -11.7,69.03 -7.82,18.93 -17.76,32.63 -29.87,41.21 -12.11,8.53 -23.81,12.82 -35.04,12.82 -22.29,0 -40.81,-13.11 -55.62,-39.39 -12.53,-22.17 -18.76,-48.86 -18.76,-80.08zm33.87 4.23c0,32.1 3.94,58.33 11.82,78.67 6.52,17.11 16.28,25.63 29.22,25.63 6.17,0 12.58,-2.76 19.22,-8.34 6.65,-5.59 11.65,-14.88 15.11,-27.99 5.24,-19.7 7.88,-47.57 7.88,-83.43 0,-26.64 -2.76,-48.86 -8.23,-66.62 -4.11,-13.23 -9.46,-22.58 -15.99,-28.05 -4.65,-3.82 -10.35,-5.7 -16.99,-5.7 -7.76,0 -14.7,3.53 -20.76,10.52 -8.23,9.53 -13.87,24.46 -16.81,44.92 -3,20.41 -4.47,40.52 -4.47,60.39z"/>
  <path id="3" class="fil4" d="M18128.52 23341.34l0 157.16 39.98 -36.63c8.52,-7.82 13.46,-12.76 14.81,-14.82 0.95,-1.41 1.42,-2.76 1.42,-4.17 0,-2.29 -1,-4.23 -2.89,-5.94 -1.88,-1.65 -4.99,-2.59 -9.4,-2.82l0 -5.65 68.61 0 0 5.65c-9.35,0.23 -17.17,1.7 -23.4,4.35 -6.23,2.7 -13.05,7.47 -20.52,14.29l-40.63 37.22 40.34 51.33c11.29,14.05 18.81,23.04 22.58,26.98 5.58,5.24 10.4,8.65 14.58,10.17 2.94,1.12 7.99,1.71 15.17,1.71l0 6.35 -76.73 0 0 -6.35c4.41,-0.12 7.35,-0.76 8.88,-1.94 1.58,-1.24 2.35,-2.88 2.35,-5.06 0,-2.64 -2.3,-6.88 -6.88,-12.7l-48.27 -61.79 0 52.21c0,10.23 0.7,16.93 2.11,20.17 1.47,3.17 3.47,5.46 6.12,6.88 2.64,1.35 8.35,2.11 17.17,2.23l0 6.35 -80.08 0 0 -6.35c7.99,0 14.05,-1 18.05,-2.94 2.41,-1.23 4.23,-3.17 5.46,-5.76 1.71,-3.76 2.59,-10.29 2.59,-19.52l0 -143.94c0,-18.05 -0.41,-29.1 -1.18,-33.16 -0.82,-4.05 -2.11,-6.82 -3.99,-8.35 -1.83,-1.58 -4.24,-2.35 -7.18,-2.35 -2.41,0 -6.05,1 -10.82,2.94l-2.93 -6.35 46.74 -19.4 7.94 0z"/>
  <path id="4" class="fil4" d="M18305.26 23457.64c11.41,-11.53 18.17,-18.17 20.22,-19.93 5.12,-4.36 10.65,-7.77 16.59,-10.18 5.93,-2.41 11.81,-3.64 17.63,-3.64 9.88,0 18.29,2.88 25.4,8.64 7.06,5.76 11.82,14.11 14.17,25.11 11.88,-13.88 21.88,-22.93 30.05,-27.28 8.17,-4.3 16.58,-6.47 25.22,-6.47 8.35,0 15.82,2.17 22.35,6.47 6.46,4.29 11.64,11.34 15.4,21.16 2.53,6.65 3.82,17.11 3.82,31.4l0 67.97c0,9.82 0.71,16.58 2.18,20.23 1.12,2.46 3.23,4.64 6.23,6.4 3.06,1.77 8,2.65 14.88,2.65l0 6.35 -77.26 0 0 -6.35 3.29 0c6.7,0 11.99,-1.29 15.76,-3.94 2.64,-1.82 4.52,-4.76 5.64,-8.76 0.47,-1.94 0.71,-7.47 0.71,-16.58l0 -67.91c0,-12.88 -1.53,-21.93 -4.65,-27.22 -4.52,-7.35 -11.7,-11.06 -21.63,-11.06 -6.06,0 -12.23,1.53 -18.41,4.59 -6.11,3 -13.58,8.7 -22.34,16.93l-0.35 1.94 0.7 7.41 0 75.32c0,10.7 0.59,17.4 1.77,20.05 1.23,2.59 3.46,4.82 6.76,6.58 3.29,1.77 8.93,2.65 16.87,2.65l0 6.35 -79.37 0 0 -6.35c8.64,0 14.58,-1 17.81,-3.06 3.24,-2.06 5.47,-5.17 6.7,-9.29 0.59,-1.94 0.89,-7.58 0.89,-16.93l0 -67.91c0,-12.88 -1.88,-22.17 -5.65,-27.87 -5.05,-7.41 -12.05,-11.11 -21.11,-11.11 -6.17,0 -12.28,1.7 -18.34,5.05 -9.47,5.06 -16.82,10.82 -21.93,17.17l0 84.67c0,10.29 0.7,16.93 2.12,20.05 1.41,3.06 3.52,5.35 6.35,6.94 2.76,1.53 8.4,2.29 16.93,2.29l0 6.35 -77.97 0 0 -6.35c7.24,0 12.29,-0.76 15.17,-2.29 2.89,-1.59 5.06,-4 6.59,-7.41 1.47,-3.35 2.23,-9.88 2.23,-19.58l0 -60.33c0,-17.28 -0.53,-28.45 -1.53,-33.51 -0.82,-3.82 -2.05,-6.41 -3.82,-7.82 -1.7,-1.47 -4.05,-2.18 -6.99,-2.18 -3.24,0 -7.06,0.89 -11.53,2.59l-2.58 -6.35 47.62 -19.4 7.41 0 0 33.75z"/>
  <path class="fil4" d="M17014.86 24345.44l57.09 -27.52 5.71 0 0 197.2c0,13.12 0.53,21.35 1.64,24.58 1.12,3.18 3.36,5.71 6.82,7.41 3.47,1.71 10.53,2.7 21.17,2.94l0 6.35 -88.19 0 0 -6.35c11.05,-0.24 18.16,-1.18 21.34,-2.88 3.23,-1.65 5.47,-3.88 6.76,-6.7 1.24,-2.83 1.88,-11.29 1.88,-25.35l0 -126.29c0,-16.99 -0.59,-27.93 -1.7,-32.75 -0.83,-3.7 -2.3,-6.41 -4.41,-8.11 -2.18,-1.71 -4.71,-2.59 -7.71,-2.59 -4.29,0 -10.23,1.76 -17.81,5.35l-2.59 -5.29z"/>
  <path id="1" class="fil4" d="M17649.52 24427.52c11.41,-11.53 18.17,-18.17 20.22,-19.93 5.12,-4.36 10.65,-7.77 16.59,-10.18 5.93,-2.41 11.81,-3.64 17.63,-3.64 9.88,0 18.29,2.88 25.4,8.64 7.06,5.76 11.82,14.11 14.17,25.11 11.88,-13.88 21.88,-22.93 30.05,-27.28 8.17,-4.3 16.58,-6.47 25.22,-6.47 8.35,0 15.82,2.17 22.35,6.47 6.46,4.29 11.64,11.34 15.4,21.16 2.53,6.65 3.82,17.11 3.82,31.4l0 67.97c0,9.82 0.71,16.58 2.18,20.23 1.12,2.46 3.23,4.64 6.23,6.4 3.06,1.77 8,2.65 14.88,2.65l0 6.35 -77.26 0 0 -6.35 3.29 0c6.7,0 11.99,-1.29 15.76,-3.94 2.64,-1.82 4.52,-4.76 5.64,-8.76 0.47,-1.94 0.71,-7.47 0.71,-16.58l0 -67.91c0,-12.88 -1.53,-21.93 -4.65,-27.22 -4.52,-7.35 -11.7,-11.06 -21.63,-11.06 -6.06,0 -12.23,1.53 -18.41,4.59 -6.11,3 -13.58,8.7 -22.34,16.93l-0.35 1.94 0.7 7.41 0 75.32c0,10.7 0.59,17.4 1.77,20.05 1.23,2.59 3.46,4.82 6.76,6.58 3.29,1.77 8.93,2.65 16.87,2.65l0 6.35 -79.37 0 0 -6.35c8.64,0 14.58,-1 17.81,-3.06 3.24,-2.06 5.47,-5.17 6.7,-9.29 0.59,-1.94 0.89,-7.58 0.89,-16.93l0 -67.91c0,-12.88 -1.88,-22.17 -5.65,-27.87 -5.05,-7.41 -12.05,-11.11 -21.11,-11.11 -6.17,0 -12.28,1.7 -18.34,5.05 -9.47,5.06 -16.82,10.82 -21.93,17.17l0 84.67c0,10.29 0.7,16.93 2.12,20.05 1.41,3.06 3.52,5.35 6.35,6.94 2.76,1.53 8.4,2.29 16.93,2.29l0 6.35 -77.97 0 0 -6.35c7.24,0 12.29,-0.76 15.17,-2.29 2.89,-1.59 5.06,-4 6.59,-7.41 1.47,-3.35 2.23,-9.88 2.23,-19.58l0 -60.33c0,-17.28 -0.53,-28.45 -1.53,-33.51 -0.82,-3.82 -2.05,-6.41 -3.82,-7.82 -1.7,-1.47 -4.05,-2.18 -6.99,-2.18 -3.24,0 -7.06,0.89 -11.53,2.59l-2.58 -6.35 47.62 -19.4 7.41 0 0 33.75z"/>
  <path id="2" class="fil4" d="M17917.16 24311.22c4.76,0 8.88,1.7 12.29,5.05 3.35,3.41 5.05,7.53 5.05,12.29 0,4.82 -1.7,9 -5.05,12.41 -3.41,3.47 -7.53,5.17 -12.29,5.17 -4.82,0 -9,-1.7 -12.41,-5.17 -3.47,-3.41 -5.17,-7.59 -5.17,-12.41 0,-4.76 1.7,-8.88 5.05,-12.29 3.41,-3.35 7.59,-5.05 12.53,-5.05zm14.17 82.55l0 127c0,9.82 0.7,16.34 2.17,19.58 1.41,3.29 3.53,5.7 6.35,7.29 2.82,1.59 8,2.41 15.47,2.41l0 6.35 -76.56 0 0 -6.35c7.65,0 12.82,-0.76 15.41,-2.23 2.64,-1.47 4.7,-3.94 6.29,-7.35 1.53,-3.41 2.29,-10 2.29,-19.7l0 -61.03c0,-16.99 -0.53,-27.99 -1.53,-33.05 -0.82,-3.64 -2.05,-6.17 -3.82,-7.58 -1.7,-1.47 -4.06,-2.18 -7,-2.18 -3.23,0 -7.11,0.89 -11.7,2.59l-2.41 -6.35 47.45 -19.4 7.59 0z"/>
  <path id="3" class="fil4" d="M17311.9 24511.01l-16.34 45.39 -137.82 0 0 -6.47c40.57,-36.98 69.08,-67.14 85.61,-90.54 16.52,-23.41 24.81,-44.81 24.81,-64.21 0,-14.82 -4.53,-26.99 -13.64,-36.51 -9.06,-9.53 -19.88,-14.29 -32.52,-14.29 -11.52,0 -21.81,3.29 -30.92,9.94 -9.18,6.64 -15.88,16.4 -20.29,29.22l-6.35 0c2.88,-21.11 10.29,-37.34 22.17,-48.69 11.87,-11.28 26.75,-16.93 44.62,-16.93 18.94,0 34.81,6.12 47.51,18.29 12.7,12.17 19.05,26.51 19.05,43.09 0,11.82 -2.76,23.7 -8.29,35.52 -8.47,18.58 -22.28,38.27 -41.33,59.09 -28.64,31.16 -46.28,49.86 -53.04,56.03l60.39 0c12.29,0 20.93,-0.47 25.87,-1.35 4.94,-0.94 9.41,-2.82 13.4,-5.65 4,-2.76 7.47,-6.76 10.41,-11.93l6.7 0z"/>
  <path id="4" class="fil4" d="M17339.42 24440.81c0,-26.64 4,-49.51 12.05,-68.74 8.06,-19.22 18.7,-33.57 32.05,-42.98 10.29,-7.47 20.99,-11.17 31.98,-11.17 17.94,0 33.99,9.11 48.22,27.34 17.81,22.64 26.69,53.27 26.69,91.96 0,27.05 -3.88,50.09 -11.7,69.03 -7.82,18.93 -17.76,32.63 -29.87,41.21 -12.11,8.53 -23.81,12.82 -35.04,12.82 -22.29,0 -40.81,-13.11 -55.62,-39.39 -12.53,-22.17 -18.76,-48.86 -18.76,-80.08zm33.87 4.23c0,32.1 3.94,58.33 11.82,78.67 6.52,17.11 16.28,25.63 29.22,25.63 6.17,0 12.58,-2.76 19.22,-8.34 6.65,-5.59 11.65,-14.88 15.11,-27.99 5.24,-19.7 7.88,-47.57 7.88,-83.43 0,-26.64 -2.76,-48.86 -8.23,-66.62 -4.11,-13.23 -9.46,-22.58 -15.99,-28.05 -4.65,-3.82 -10.35,-5.7 -16.99,-5.7 -7.76,0 -14.7,3.53 -20.76,10.52 -8.23,9.53 -13.87,24.46 -16.81,44.92 -3,20.41 -4.47,40.52 -4.47,60.39z"/>
  <path class="fil4" d="M19583.11 24681.53c0,-17.45 4.47,-34.48 13.46,-51.13 8.93,-16.61 21.77,-29.59 38.43,-38.86 16.69,-9.26 34.1,-13.92 52.16,-13.92 17.92,0 35.18,4.56 51.69,13.74 16.56,9.12 29.4,21.92 38.53,38.43 9.17,16.51 13.73,33.77 13.73,51.74 0,18.01 -4.56,35.27 -13.73,51.78 -9.13,16.51 -21.97,29.35 -38.53,38.53 -16.51,9.17 -33.77,13.78 -51.69,13.78 -18.06,0 -35.47,-4.66 -52.16,-13.97 -16.66,-9.36 -29.5,-22.34 -38.43,-38.95 -8.99,-16.65 -13.46,-33.68 -13.46,-51.17zm17.22 0c0,14.62 3.76,28.88 11.24,42.7 7.48,13.83 18.2,24.65 32.13,32.46 13.92,7.81 28.41,11.71 43.46,11.71 15,0 29.35,-3.85 43.08,-11.52 13.74,-7.67 24.46,-18.39 32.13,-32.17 7.67,-13.79 11.52,-28.18 11.52,-43.18 0,-14.96 -3.85,-29.36 -11.52,-43.14 -7.67,-13.78 -18.39,-24.5 -32.13,-32.12 -13.73,-7.62 -28.08,-11.43 -43.08,-11.43 -15.05,0 -29.54,3.9 -43.46,11.66 -13.93,7.76 -24.65,18.58 -32.13,32.46 -7.48,13.87 -11.24,28.08 -11.24,42.57zm103.57 -33.35l5.08 -16.94c11.53,2.78 20.7,8.61 27.52,17.55 6.87,8.98 10.3,19.85 10.3,32.59 0,16.19 -5.22,29.31 -15.71,39.42 -10.49,10.11 -24.98,15.15 -43.55,15.15 -12.14,0 -22.68,-2.31 -31.61,-6.92 -8.99,-4.56 -15.71,-11.15 -20.28,-19.61 -4.56,-8.52 -6.82,-18.25 -6.82,-29.16 0,-12.23 2.92,-22.39 8.8,-30.48 5.88,-8.09 13.88,-13.6 23.94,-16.56l4.23 16.37c-6.91,2.77 -12.23,6.82 -15.89,12.23 -3.72,5.41 -5.55,11.71 -5.55,19 0,10.58 3.76,19.33 11.28,26.2 7.53,6.87 18.35,10.3 32.37,10.3 14.06,0 24.69,-3.24 31.89,-9.74 7.19,-6.49 10.81,-14.86 10.81,-25.16 0,-8.28 -2.39,-15.57 -7.24,-21.83 -4.8,-6.25 -11.33,-10.39 -19.57,-12.41z"/>
  <path id="1" class="fil4" d="M19788.57 24386.37l-18.58 0c14.44,9.27 21.68,22.91 21.68,40.92 0,11.67 -3.19,22.39 -9.64,32.13 -6.4,9.78 -15.38,17.35 -26.86,22.76 -11.52,5.37 -24.74,8.05 -39.69,8.05 -14.59,0 -27.8,-2.45 -39.7,-7.29 -11.86,-4.9 -20.98,-12.19 -27.29,-21.92 -6.35,-9.69 -9.5,-20.61 -9.5,-32.6 0,-8.84 1.88,-16.7 5.6,-23.56 3.72,-6.87 8.61,-12.47 14.58,-16.8l-72.67 0 0 -24.83 202.07 0 0 23.14zm-73.05 78.46c18.72,0 32.69,-3.95 41.96,-11.9 9.26,-7.91 13.87,-17.27 13.87,-28.04 0,-10.86 -4.42,-20.08 -13.26,-27.7 -8.84,-7.57 -22.34,-11.38 -40.5,-11.38 -19.94,0 -34.62,3.85 -43.98,11.61 -9.36,7.72 -14.01,17.27 -14.01,28.6 0,11.06 4.46,20.27 13.45,27.71 8.98,7.38 23.14,11.1 42.47,11.1z"/>
  <path id="2" class="fil4" d="M19727.89 24333.83l-24.83 0 0 -76.76 24.83 0 0 76.76z"/>
  <path id="3" class="fil4" d="M19788.57 24229.97l-146.47 0 0 -22.29 20.69 0c-7.15,-4.56 -12.93,-10.68 -17.26,-18.3 -4.37,-7.62 -6.54,-16.27 -6.54,-26.01 0,-10.82 2.26,-19.71 6.73,-26.62 4.52,-6.92 10.77,-11.81 18.86,-14.63 -17.07,-11.67 -25.59,-26.77 -25.59,-45.39 0,-14.58 4,-25.83 12.04,-33.63 8.05,-7.86 20.42,-11.81 37.12,-11.81l100.42 0 0 24.84 -92.19 0c-9.88,0 -17.03,0.84 -21.4,2.44 -4.38,1.6 -7.86,4.52 -10.54,8.8 -2.68,4.23 -4,9.22 -4,14.91 0,10.35 3.44,18.91 10.26,25.73 6.86,6.82 17.82,10.2 32.87,10.2l85 0 0 24.84 -95.06 0c-11.01,0 -19.29,2.02 -24.79,6.07 -5.5,4.04 -8.28,10.67 -8.28,19.85 0,6.96 1.84,13.4 5.51,19.33 3.66,5.93 9.03,10.21 16.13,12.89 7.05,2.63 17.26,3.95 30.57,3.95l75.92 0 0 24.83z"/>
  <path id="4" class="fil4" d="M19770.23 23899.21c7.85,9.22 13.35,18.11 16.6,26.62 3.25,8.52 4.84,17.64 4.84,27.43 0,16.08 -3.9,28.45 -11.75,37.11 -7.81,8.65 -17.83,12.98 -30.01,12.98 -7.15,0 -13.69,-1.65 -19.62,-4.89 -5.93,-3.29 -10.63,-7.57 -14.2,-12.84 -3.58,-5.32 -6.31,-11.24 -8.14,-17.88 -1.27,-4.89 -2.49,-12.27 -3.72,-22.1 -2.35,-20.04 -5.22,-34.86 -8.51,-44.31 -3.39,-0.1 -5.55,-0.14 -6.44,-0.14 -10.07,0 -17.17,2.35 -21.31,7.05 -5.6,6.35 -8.37,15.81 -8.37,28.32 0,11.71 2.07,20.36 6.16,25.92 4.09,5.59 11.38,9.68 21.78,12.37l-3.39 24.27c-10.4,-2.21 -18.82,-5.84 -25.21,-10.92 -6.4,-5.08 -11.29,-12.41 -14.77,-22.01 -3.44,-9.55 -5.18,-20.7 -5.18,-33.3 0,-12.51 1.46,-22.72 4.42,-30.57 2.97,-7.81 6.64,-13.6 11.11,-17.27 4.46,-3.67 10.11,-6.25 16.93,-7.76 4.23,-0.8 11.85,-1.22 22.81,-1.22l32.93 0c23,0 37.53,-0.52 43.69,-1.55 6.17,-0.99 12.05,-3.06 17.69,-6.07l0 25.96c-5.22,2.5 -11.34,4.1 -18.34,4.8zm-55.04 1.98c3.67,9.03 6.78,22.57 9.32,40.64 1.45,10.25 3.1,17.49 4.93,21.73 1.84,4.23 4.52,7.48 8,9.78 3.53,2.31 7.43,3.48 11.76,3.48 6.54,0 12.04,-2.49 16.42,-7.52 4.37,-5.04 6.58,-12.38 6.58,-22.02 0,-9.55 -2.07,-18.06 -6.25,-25.54 -4.14,-7.43 -9.84,-12.93 -17.03,-16.41 -5.6,-2.69 -13.83,-4 -24.7,-4l-9.03 -0.14z"/>
  <path id="5" class="fil4" d="M19844.73 23837.92l-202.63 0 0 -22.57 19.24 0c-7.44,-5.32 -13.03,-11.34 -16.75,-18.07 -3.72,-6.68 -5.6,-14.81 -5.6,-24.36 0,-12.51 3.2,-23.52 9.65,-33.07 6.39,-9.55 15.47,-16.74 27.14,-21.63 11.71,-4.85 24.5,-7.3 38.47,-7.3 14.91,0 28.37,2.69 40.36,8.05 11.95,5.36 21.12,13.17 27.52,23.42 6.35,10.21 9.54,20.98 9.54,32.27 0,8.28 -1.74,15.71 -5.22,22.25 -3.48,6.58 -7.85,11.94 -13.17,16.18l71.45 0 0 24.83zm-128.5 -22.57c18.77,0 32.69,-3.81 41.67,-11.39 8.99,-7.62 13.45,-16.84 13.45,-27.65 0,-11.01 -4.65,-20.42 -13.97,-28.23 -9.31,-7.85 -23.7,-11.76 -43.22,-11.76 -18.63,0 -32.55,3.81 -41.82,11.48 -9.26,7.67 -13.87,16.79 -13.87,27.42 0,10.54 4.94,19.85 14.77,27.94 9.87,8.14 24.17,12.19 42.99,12.19z"/>
  <path id="6" class="fil4" d="M19744.83 23690.84l-3.96 -24.55c9.84,-1.37 17.36,-5.22 22.63,-11.53 5.22,-6.3 7.85,-15.14 7.85,-26.43 0,-11.43 -2.3,-19.9 -6.96,-25.45 -4.61,-5.5 -10.06,-8.28 -16.32,-8.28 -5.6,0 -10.02,2.5 -13.22,7.44 -2.21,3.48 -4.98,11.94 -8.42,25.4 -4.56,18.15 -8.51,30.71 -11.85,37.77 -3.39,7 -7.99,12.32 -13.92,15.94 -5.88,3.62 -12.42,5.46 -19.57,5.46 -6.54,0 -12.56,-1.51 -18.11,-4.47 -5.55,-3.01 -10.16,-7.06 -13.83,-12.18 -2.82,-3.86 -5.22,-9.13 -7.19,-15.76 -1.98,-6.68 -2.97,-13.78 -2.97,-21.4 0,-11.48 1.65,-21.54 4.99,-30.2 3.29,-8.7 7.81,-15.1 13.45,-19.24 5.69,-4.09 13.27,-6.96 22.77,-8.51l3.38 24.27c-7.62,1.08 -13.59,4.28 -17.87,9.55 -4.28,5.27 -6.4,12.7 -6.4,22.34 0,11.34 1.88,19.47 5.65,24.32 3.76,4.84 8.18,7.29 13.21,7.29 3.2,0 6.12,-0.99 8.71,-3.01 2.63,-2.02 4.84,-5.18 6.58,-9.5 0.94,-2.5 3.06,-9.74 6.35,-21.87 4.66,-17.5 8.52,-29.73 11.48,-36.69 2.96,-6.96 7.34,-12.42 12.98,-16.37 5.69,-4 12.75,-5.98 21.21,-5.98 8.24,0 16,2.4 23.29,7.25 7.29,4.84 12.93,11.8 16.93,20.88 4,9.13 5.97,19.43 5.97,30.91 0,19 -3.95,33.53 -11.8,43.5 -7.9,9.98 -19.57,16.33 -35.04,19.1z"/>
  <path id="7" class="fil4" d="M19788.57 23532.8l-28.22 0 0 -28.22 28.22 0 0 28.22z"/>
  <path id="8" class="fil4" d="M19734.95 23365.77l3.38 -24.27c16.7,2.68 29.73,9.45 39.19,20.41 9.45,10.96 14.15,24.46 14.15,40.41 0,19.99 -6.53,36.08 -19.61,48.21 -13.08,12.18 -31.8,18.25 -56.16,18.25 -15.81,0 -29.59,-2.63 -41.39,-7.85 -11.86,-5.22 -20.75,-13.17 -26.63,-23.9 -5.92,-10.68 -8.89,-22.29 -8.89,-34.9 0,-15.85 4,-28.88 12.04,-38.95 8.05,-10.11 19.48,-16.6 34.25,-19.42l3.67 23.99c-9.83,2.3 -17.22,6.35 -22.2,12.23 -4.94,5.83 -7.44,12.88 -7.44,21.16 0,12.51 4.47,22.67 13.41,30.53 8.98,7.81 23.09,11.71 42.47,11.71 19.66,0 33.92,-3.76 42.81,-11.29 8.89,-7.57 13.35,-17.4 13.35,-29.49 0,-9.78 -2.96,-17.92 -8.93,-24.41 -5.93,-6.54 -15.1,-10.68 -27.47,-12.42z"/>
  <path id="9" class="fil4" d="M19715.33 23329.65c-27.04,0 -47.08,-7.53 -60.11,-22.63 -10.82,-12.56 -16.23,-27.94 -16.23,-46.05 0,-20.08 6.59,-36.54 19.76,-49.34 13.12,-12.75 31.33,-19.14 54.51,-19.14 18.82,0 33.59,2.82 44.36,8.46 10.77,5.65 19.14,13.88 25.12,24.7 5.97,10.77 8.93,22.58 8.93,35.32 0,20.51 -6.53,37.07 -19.66,49.72 -13.12,12.65 -32.03,18.96 -56.68,18.96zm0.05 -25.4c18.72,0 32.74,-4.1 42,-12.28 9.32,-8.23 13.97,-18.53 13.97,-31 0,-12.32 -4.65,-22.57 -14.01,-30.81 -9.36,-8.18 -23.61,-12.27 -42.76,-12.27 -18.06,0 -31.75,4.14 -41.01,12.37 -9.32,8.23 -13.97,18.48 -13.97,30.71 0,12.47 4.61,22.77 13.87,31 9.27,8.18 23.24,12.28 41.91,12.28z"/>
  <path id="10" class="fil4" d="M19788.57 23163.37l-146.47 0 0 -22.29 20.69 0c-7.15,-4.56 -12.93,-10.68 -17.26,-18.3 -4.37,-7.62 -6.54,-16.27 -6.54,-26.01 0,-10.82 2.26,-19.71 6.73,-26.62 4.52,-6.92 10.77,-11.81 18.86,-14.63 -17.07,-11.67 -25.59,-26.77 -25.59,-45.39 0,-14.58 4,-25.83 12.04,-33.63 8.05,-7.86 20.42,-11.81 37.12,-11.81l100.42 0 0 24.84 -92.19 0c-9.88,0 -17.03,0.84 -21.4,2.44 -4.38,1.6 -7.86,4.52 -10.54,8.8 -2.68,4.23 -4,9.22 -4,14.91 0,10.35 3.44,18.91 10.26,25.73 6.86,6.82 17.82,10.2 32.87,10.2l85 0 0 24.84 -95.06 0c-11.01,0 -19.29,2.02 -24.79,6.07 -5.5,4.04 -8.28,10.67 -8.28,19.85 0,6.96 1.84,13.4 5.51,19.33 3.66,5.93 9.03,10.21 16.13,12.89 7.05,2.63 17.26,3.95 30.57,3.95l75.92 0 0 24.83z"/>
  <g id="_1994681064672">
   <path class="fil5 str2" d="M15758.08 23780.23l705.88 0 0 99.16 -705.88 0 0 -99.16z"/>
   <path class="fil6 str2" d="M16463.96 23780.23l705.88 0 0 99.16 -705.88 0 0 -99.16z"/>
   <path class="fil5 str2" d="M17169.84 23780.23l705.88 0 0 99.16 -705.88 0 0 -99.16z"/>
   <path class="fil6 str2" d="M17875.89 23780.23l705.88 0 0 99.16 -705.88 0 0 -99.16z"/>
   <path class="fil5 str2" d="M18581.79 23780.23l705.89 0 0 99.16 -705.89 0 0 -99.16z"/>
   <path class="fil6 str2" d="M18018.52 24079.17l1128.99 0 0 99.16 -1128.99 0 0 -99.16z"/>
   <path class="fil5 str2" d="M16889.53 24079.17l1128.99 0 0 99.16 -1128.99 0 0 -99.16z"/>
   <path class="fil6 str2" d="M15760.55 24079.17l1128.99 0 0 99.16 -1128.99 0 0 -99.16z"/>
  </g>
  <g id="_1994681061984">
   <path class="fil3 str1" d="M14668.13 23178.11l815.93 0 0 1592.89 -815.93 0 0 -1592.89z"/>
   <path class="fil7" d="M15016.23 23614.24c-0.92,3.32 -1.63,6.35 -2.07,9.15 -0.44,2.79 -0.65,5.18 -0.65,7.22 0,5.59 1.8,9.56 5.29,11.89 3.49,2.33 9.55,3.49 18.05,3.49l4.15 0 -4.96 22.72 -78.17 0 5.29 -22.72 2.89 0c7.36,0 12.82,-1.51 16.48,-4.54 3.6,-2.97 6.32,-8.39 8.12,-16.14l37.59 -153.79c0.6,-2.74 1.14,-5.54 1.52,-8.45 0.33,-2.91 0.55,-5.77 0.55,-8.62 0,-5.36 -1.96,-9.15 -5.95,-11.36 -3.92,-2.22 -10.69,-3.32 -20.23,-3.32l-3.06 0 5.29 -22.72 72.33 0 62.14 183.5 31.31 -129.03c1.08,-4.2 1.85,-7.63 2.34,-10.31 0.49,-2.68 0.71,-4.72 0.71,-6.06 0,-5.6 -1.8,-9.56 -5.35,-11.89 -3.6,-2.33 -9.71,-3.49 -18.32,-3.49l-4.15 0 4.96 -22.72 78.5 0 -5.62 22.72 -2.84 0c-7.37,0 -12.87,1.51 -16.47,4.54 -3.66,2.97 -6.33,8.33 -8.18,15.96l-50.68 208.44 -21.54 0 -72.06 -209.48 -37.21 155.01z"/>
   <path class="fil8 str3" d="M15076.92 24637.8l0 -769.27"/>
   <path class="fil8 str3" d="M14794.87 24361.75l563.14 0"/>
   <path class="fil8 str3" d="M14932.02 24501.74l294.22 -286.81"/>
   <path class="fil8 str3" d="M14928.88 24214.69l297.98 288.85"/>
   <path class="fil8 str3" d="M15076.78 23871.26l-95.47 118.01"/>
   <path class="fil8 str3" d="M15077.4 23871.22l87.89 118.05"/>
  </g>
  <g id="_1994681053344">
   <path class="fil3 str1" d="M13906.13 24297.3l0 473.7 -2309.37 0 0 -473.7 2309.37 0z"/>
   <path class="fil7" d="M12674.1 24635.77l0 -202.07 40.07 0 47.79 143.04c4.42,13.31 7.62,23.28 9.64,29.91 2.31,-7.33 5.93,-18.15 10.82,-32.4l48.64 -140.55 35.79 0 0 202.07 -25.68 0 0 -169.05 -58.98 169.05 -24.09 0 -58.32 -172.15 0 172.15 -25.68 0z"/>
   <path id="1" class="fil7" d="M13006.55 24588.36l25.68 3.38c-3.99,14.91 -11.47,26.53 -22.39,34.76 -10.91,8.24 -24.83,12.37 -41.81,12.37 -21.36,0 -38.29,-6.58 -50.8,-19.75 -12.51,-13.12 -18.77,-31.61 -18.77,-55.36 0,-24.56 6.31,-43.65 18.96,-57.2 12.65,-13.59 29.07,-20.37 49.25,-20.37 19.52,0 35.46,6.64 47.83,19.95 12.37,13.31 18.58,32.03 18.58,56.16 0,1.46 -0.05,3.67 -0.14,6.58l-109.08 0c0.94,16.04 5.46,28.37 13.64,36.88 8.14,8.51 18.35,12.79 30.53,12.79 9.08,0 16.84,-2.39 23.24,-7.19 6.44,-4.8 11.52,-12.47 15.28,-23zm-81.28 -39.8l81.56 0c-1.08,-12.32 -4.23,-21.54 -9.36,-27.7 -7.85,-9.55 -18.1,-14.35 -30.66,-14.35 -11.39,0 -20.93,3.81 -28.7,11.43 -7.71,7.62 -11.99,17.83 -12.84,30.62z"/>
   <path id="2" class="fil7" d="M13063.32 24635.77l0 -146.47 22.3 0 0 22.43c5.69,-10.39 10.96,-17.26 15.8,-20.55 4.85,-3.34 10.16,-4.99 15.95,-4.99 8.37,0 16.89,2.64 25.54,7.86l-8.84 22.91c-6.02,-3.39 -12.04,-5.08 -18.06,-5.08 -5.41,0 -10.26,1.64 -14.54,4.89 -4.28,3.24 -7.34,7.76 -9.17,13.54 -2.78,8.8 -4.14,18.44 -4.14,28.93l0 76.53 -24.84 0z"/>
   <path id="3" class="fil7" d="M13253.26 24582.15l24.27 3.38c-2.68,16.7 -9.45,29.73 -20.41,39.19 -10.96,9.45 -24.46,14.15 -40.41,14.15 -19.99,0 -36.08,-6.53 -48.21,-19.61 -12.18,-13.08 -18.25,-31.8 -18.25,-56.16 0,-15.81 2.63,-29.59 7.85,-41.44 5.22,-11.81 13.17,-20.7 23.9,-26.58 10.68,-5.92 22.29,-8.89 34.9,-8.89 15.85,0 28.88,4 38.95,12.04 10.11,8.05 16.6,19.48 19.42,34.25l-23.99 3.67c-2.3,-9.83 -6.35,-17.22 -12.23,-22.2 -5.83,-4.94 -12.88,-7.44 -21.16,-7.44 -12.51,0 -22.67,4.47 -30.53,13.41 -7.81,8.98 -11.71,23.09 -11.71,42.47 0,19.66 3.76,33.92 11.29,42.81 7.57,8.89 17.4,13.35 29.49,13.35 9.78,0 17.92,-2.96 24.41,-8.93 6.54,-5.93 10.68,-15.1 12.42,-27.47z"/>
   <path id="4" class="fil7" d="M13394.37 24617.43c-9.22,7.85 -18.11,13.35 -26.62,16.6 -8.52,3.25 -17.64,4.84 -27.43,4.84 -16.08,0 -28.45,-3.9 -37.11,-11.75 -8.65,-7.81 -12.98,-17.83 -12.98,-30.01 0,-7.15 1.65,-13.69 4.89,-19.62 3.29,-5.93 7.57,-10.63 12.84,-14.2 5.32,-3.58 11.24,-6.31 17.88,-8.14 4.89,-1.27 12.27,-2.49 22.1,-3.72 20.04,-2.35 34.86,-5.22 44.31,-8.51 0.1,-3.39 0.14,-5.55 0.14,-6.44 0,-10.07 -2.35,-17.17 -7.05,-21.31 -6.35,-5.6 -15.81,-8.37 -28.32,-8.37 -11.71,0 -20.36,2.07 -25.92,6.16 -5.59,4.09 -9.68,11.33 -12.37,21.78l-24.27 -3.39c2.21,-10.4 5.84,-18.82 10.92,-25.21 5.08,-6.4 12.41,-11.29 22.01,-14.77 9.55,-3.44 20.7,-5.18 33.3,-5.18 12.51,0 22.72,1.46 30.57,4.42 7.81,2.97 13.6,6.64 17.27,11.11 3.67,4.46 6.25,10.11 7.76,16.93 0.8,4.23 1.22,11.85 1.22,22.81l0 32.93c0,23 0.52,37.53 1.55,43.69 0.99,6.17 3.06,12.05 6.07,17.69l-25.96 0c-2.5,-5.22 -4.1,-11.34 -4.8,-18.34zm-1.98 -55.04c-9.03,3.67 -22.57,6.78 -40.64,9.32 -10.25,1.45 -17.49,3.1 -21.73,4.93 -4.23,1.84 -7.48,4.52 -9.78,8 -2.31,3.53 -3.48,7.43 -3.48,11.76 0,6.54 2.49,12.04 7.52,16.42 5.04,4.37 12.38,6.58 22.02,6.58 9.55,0 18.06,-2.07 25.54,-6.25 7.43,-4.14 12.93,-9.84 16.41,-17.03 2.69,-5.6 4,-13.83 4,-24.7l0.14 -9.03z"/>
   <path id="5" class="fil7" d="M13509.56 24613.62l3.39 21.91c-6.96,1.46 -13.22,2.22 -18.68,2.22 -8.98,0 -15.94,-1.42 -20.93,-4.28 -4.94,-2.87 -8.42,-6.59 -10.44,-11.25 -2.02,-4.65 -3.01,-14.44 -3.01,-29.35l0 -84.38 -18.34 0 0 -19.19 18.34 0 0 -36.22 24.84 -14.91 0 51.13 24.83 0 0 19.19 -24.83 0 0 85.79c0,7.11 0.42,11.67 1.31,13.69 0.85,2.02 2.26,3.62 4.24,4.85 1.97,1.17 4.79,1.78 8.46,1.78 2.73,0 6.35,-0.33 10.82,-0.98z"/>
   <path id="6" class="fil7" d="M13524.75 24562.53c0,-27.04 7.53,-47.08 22.63,-60.11 12.56,-10.82 27.94,-16.23 46.05,-16.23 20.08,0 36.54,6.59 49.34,19.76 12.75,13.12 19.14,31.33 19.14,54.51 0,18.82 -2.82,33.59 -8.46,44.36 -5.65,10.77 -13.88,19.14 -24.7,25.12 -10.77,5.97 -22.58,8.93 -35.32,8.93 -20.51,0 -37.07,-6.53 -49.72,-19.66 -12.65,-13.12 -18.96,-32.03 -18.96,-56.68zm25.4 0.05c0,18.72 4.1,32.74 12.28,42 8.23,9.32 18.53,13.97 31,13.97 12.32,0 22.57,-4.65 30.81,-14.01 8.18,-9.36 12.27,-23.61 12.27,-42.76 0,-18.06 -4.14,-31.75 -12.37,-41.01 -8.23,-9.32 -18.48,-13.97 -30.71,-13.97 -12.47,0 -22.77,4.61 -31,13.87 -8.18,9.27 -12.28,23.24 -12.28,41.91z"/>
   <path id="7" class="fil7" d="M13690.74 24635.77l0 -146.47 22.3 0 0 22.43c5.69,-10.39 10.96,-17.26 15.8,-20.55 4.85,-3.34 10.16,-4.99 15.95,-4.99 8.37,0 16.89,2.64 25.54,7.86l-8.84 22.91c-6.02,-3.39 -12.04,-5.08 -18.06,-5.08 -5.41,0 -10.26,1.64 -14.54,4.89 -4.28,3.24 -7.34,7.76 -9.17,13.54 -2.78,8.8 -4.14,18.44 -4.14,28.93l0 76.53 -24.84 0z"/>
   <circle class="fil9 str4" cx="11815.13" cy="24530.45" r="118.79"/>
   <rect class="fil9 str4" x="12273.06" y="24422.17" width="226.91" height="226.91"/>
   <path class="fil8 str5" d="M11989.03 24529.58l220.31 0"/>
   <path class="fil8 str5" d="M12206.68 24530.24l-64.02 65.38"/>
   <path class="fil8 str5" d="M12206.85 24529.1l-63.42 -61.39"/>
  </g>
  <rect class="fil8 str6" x="1000" y="1000" width="19000" height="24004.87"/>
 </g>
</svg>
